<mxfile host="app.diagrams.net" modified="2023-10-10T13:42:29.029Z" agent="Mozilla/5.0 (Macintosh; Intel Mac OS X 10_15_7) AppleWebKit/537.36 (KHTML, like Gecko) Chrome/117.0.0.0 Safari/537.36" etag="wwJEz2N1CY2u6QNpjSEL" version="22.0.4" type="github">
  <diagram name="第 1 页" id="CUnczt2Ad3cjnCFl4lBI">
    <mxGraphModel dx="4924" dy="3352" grid="1" gridSize="10" guides="1" tooltips="1" connect="1" arrows="1" fold="1" page="1" pageScale="1" pageWidth="827" pageHeight="1169" math="0" shadow="0">
      <root>
        <mxCell id="0" />
        <mxCell id="1" parent="0" />
        <mxCell id="QqfOzjYN5zHtX_PdudBc-1" value="" style="ellipse;whiteSpace=wrap;html=1;aspect=fixed;fillColor=#d5e8d4;strokeColor=#82b366;" vertex="1" parent="1">
          <mxGeometry x="240" y="80" width="480" height="480" as="geometry" />
        </mxCell>
        <mxCell id="QqfOzjYN5zHtX_PdudBc-5" value="" style="endArrow=none;html=1;rounded=0;exitX=0;exitY=0.5;exitDx=0;exitDy=0;entryX=1;entryY=0.5;entryDx=0;entryDy=0;" edge="1" parent="1" target="QqfOzjYN5zHtX_PdudBc-1">
          <mxGeometry width="50" height="50" relative="1" as="geometry">
            <mxPoint x="249.99999999999932" y="320" as="sourcePoint" />
            <mxPoint x="530" y="260" as="targetPoint" />
          </mxGeometry>
        </mxCell>
        <mxCell id="QqfOzjYN5zHtX_PdudBc-18" value="" style="ellipse;whiteSpace=wrap;html=1;aspect=fixed;opacity=40;fillColor=#d5e8d4;strokeColor=#82b366;" vertex="1" parent="1">
          <mxGeometry x="262.5" y="102.5" width="435" height="435" as="geometry" />
        </mxCell>
        <mxCell id="QqfOzjYN5zHtX_PdudBc-21" value="" style="ellipse;whiteSpace=wrap;html=1;aspect=fixed;opacity=40;fillColor=#d5e8d4;strokeColor=#82b366;" vertex="1" parent="1">
          <mxGeometry x="287.81" y="127.82" width="384.38" height="384.38" as="geometry" />
        </mxCell>
        <mxCell id="QqfOzjYN5zHtX_PdudBc-23" value="" style="ellipse;whiteSpace=wrap;html=1;aspect=fixed;opacity=40;fillColor=#d5e8d4;strokeColor=#82b366;" vertex="1" parent="1">
          <mxGeometry x="309.45000000000005" y="149.46" width="341.1" height="341.1" as="geometry" />
        </mxCell>
        <mxCell id="QqfOzjYN5zHtX_PdudBc-25" value="" style="ellipse;whiteSpace=wrap;html=1;aspect=fixed;opacity=40;fillColor=#ffe6cc;strokeColor=#d79b00;" vertex="1" parent="1">
          <mxGeometry x="329.85" y="169.86" width="300.29" height="300.29" as="geometry" />
        </mxCell>
        <mxCell id="QqfOzjYN5zHtX_PdudBc-27" value="" style="ellipse;whiteSpace=wrap;html=1;aspect=fixed;opacity=40;fillColor=#ffe6cc;strokeColor=#d79b00;" vertex="1" parent="1">
          <mxGeometry x="349.95" y="189.97" width="260.09" height="260.09" as="geometry" />
        </mxCell>
        <mxCell id="QqfOzjYN5zHtX_PdudBc-29" value="" style="ellipse;whiteSpace=wrap;html=1;aspect=fixed;opacity=40;fillColor=#ffe6cc;strokeColor=#d79b00;" vertex="1" parent="1">
          <mxGeometry x="369.94" y="209.99" width="220.05" height="220.05" as="geometry" />
        </mxCell>
        <mxCell id="QqfOzjYN5zHtX_PdudBc-31" value="" style="ellipse;whiteSpace=wrap;html=1;aspect=fixed;opacity=40;fillColor=#ffe6cc;strokeColor=#d79b00;" vertex="1" parent="1">
          <mxGeometry x="389.94" y="230" width="180.04" height="180.04" as="geometry" />
        </mxCell>
        <mxCell id="QqfOzjYN5zHtX_PdudBc-32" value="" style="ellipse;whiteSpace=wrap;html=1;aspect=fixed;opacity=40;fillColor=#dae8fc;strokeColor=#6c8ebf;" vertex="1" parent="1">
          <mxGeometry x="409.94" y="250" width="140.04" height="140.04" as="geometry" />
        </mxCell>
        <mxCell id="QqfOzjYN5zHtX_PdudBc-33" value="" style="ellipse;whiteSpace=wrap;html=1;aspect=fixed;opacity=40;fillColor=#dae8fc;strokeColor=#6c8ebf;" vertex="1" parent="1">
          <mxGeometry x="429.98" y="269.98" width="100.04" height="100.04" as="geometry" />
        </mxCell>
        <mxCell id="QqfOzjYN5zHtX_PdudBc-34" value="" style="ellipse;whiteSpace=wrap;html=1;aspect=fixed;opacity=40;fillColor=#dae8fc;strokeColor=#6c8ebf;" vertex="1" parent="1">
          <mxGeometry x="449.95000000000005" y="289.99" width="60.02" height="60.02" as="geometry" />
        </mxCell>
        <mxCell id="QqfOzjYN5zHtX_PdudBc-35" value="" style="ellipse;whiteSpace=wrap;html=1;aspect=fixed;opacity=40;fillColor=#f5f5f5;fontColor=#333333;strokeColor=#666666;" vertex="1" parent="1">
          <mxGeometry x="464.96" y="304.99" width="30.01" height="30.01" as="geometry" />
        </mxCell>
        <mxCell id="QqfOzjYN5zHtX_PdudBc-8" value="" style="endArrow=none;html=1;rounded=0;exitX=0;exitY=1;exitDx=0;exitDy=0;entryX=1;entryY=0;entryDx=0;entryDy=0;" edge="1" parent="1" source="QqfOzjYN5zHtX_PdudBc-1" target="QqfOzjYN5zHtX_PdudBc-1">
          <mxGeometry width="50" height="50" relative="1" as="geometry">
            <mxPoint x="480" y="390" as="sourcePoint" />
            <mxPoint x="530" y="340" as="targetPoint" />
          </mxGeometry>
        </mxCell>
        <mxCell id="QqfOzjYN5zHtX_PdudBc-17" value="" style="endArrow=none;html=1;rounded=0;exitX=0;exitY=0.5;exitDx=0;exitDy=0;entryX=1;entryY=0.5;entryDx=0;entryDy=0;" edge="1" parent="1" source="QqfOzjYN5zHtX_PdudBc-1">
          <mxGeometry width="50" height="50" relative="1" as="geometry">
            <mxPoint x="240" y="320" as="sourcePoint" />
            <mxPoint x="710.0000000000009" y="320" as="targetPoint" />
          </mxGeometry>
        </mxCell>
        <mxCell id="QqfOzjYN5zHtX_PdudBc-6" value="" style="endArrow=none;html=1;rounded=0;exitX=0;exitY=0;exitDx=0;exitDy=0;entryX=1;entryY=1;entryDx=0;entryDy=0;" edge="1" parent="1" source="QqfOzjYN5zHtX_PdudBc-1" target="QqfOzjYN5zHtX_PdudBc-1">
          <mxGeometry width="50" height="50" relative="1" as="geometry">
            <mxPoint x="480" y="310" as="sourcePoint" />
            <mxPoint x="530" y="260" as="targetPoint" />
          </mxGeometry>
        </mxCell>
        <mxCell id="QqfOzjYN5zHtX_PdudBc-7" value="" style="endArrow=none;html=1;rounded=0;entryX=0.5;entryY=0;entryDx=0;entryDy=0;exitX=0.5;exitY=1;exitDx=0;exitDy=0;" edge="1" parent="1" source="QqfOzjYN5zHtX_PdudBc-1" target="QqfOzjYN5zHtX_PdudBc-1">
          <mxGeometry width="50" height="50" relative="1" as="geometry">
            <mxPoint x="480" y="310" as="sourcePoint" />
            <mxPoint x="530" y="260" as="targetPoint" />
          </mxGeometry>
        </mxCell>
        <mxCell id="QqfOzjYN5zHtX_PdudBc-36" value="健康" style="text;html=1;strokeColor=none;fillColor=none;align=center;verticalAlign=middle;whiteSpace=wrap;rounded=0;rotation=0;" vertex="1" parent="1">
          <mxGeometry x="449.95" y="50" width="60" height="30" as="geometry" />
        </mxCell>
        <mxCell id="QqfOzjYN5zHtX_PdudBc-39" value="事业" style="text;html=1;strokeColor=none;fillColor=none;align=center;verticalAlign=middle;whiteSpace=wrap;rounded=0;rotation=45;" vertex="1" parent="1">
          <mxGeometry x="630.14" y="119.46000000000001" width="60" height="30" as="geometry" />
        </mxCell>
        <mxCell id="QqfOzjYN5zHtX_PdudBc-40" value="财富" style="text;html=1;strokeColor=none;fillColor=none;align=center;verticalAlign=middle;whiteSpace=wrap;rounded=0;rotation=0;" vertex="1" parent="1">
          <mxGeometry x="720" y="305.02" width="60" height="30" as="geometry" />
        </mxCell>
        <mxCell id="QqfOzjYN5zHtX_PdudBc-41" value="爱情" style="text;html=1;strokeColor=none;fillColor=none;align=center;verticalAlign=middle;whiteSpace=wrap;rounded=0;rotation=-45;" vertex="1" parent="1">
          <mxGeometry x="268.5" y="124.46000000000001" width="60" height="30" as="geometry" />
        </mxCell>
        <mxCell id="QqfOzjYN5zHtX_PdudBc-43" value="友情" style="text;html=1;strokeColor=none;fillColor=none;align=center;verticalAlign=middle;whiteSpace=wrap;rounded=0;rotation=45;direction=east;" vertex="1" parent="1">
          <mxGeometry x="268.85" y="486.2" width="60" height="30" as="geometry" />
        </mxCell>
        <mxCell id="QqfOzjYN5zHtX_PdudBc-44" value="自我实现" style="text;html=1;strokeColor=none;fillColor=none;align=center;verticalAlign=middle;whiteSpace=wrap;rounded=0;rotation=0;direction=east;" vertex="1" parent="1">
          <mxGeometry x="449.99999999999994" y="560" width="60" height="30" as="geometry" />
        </mxCell>
        <mxCell id="QqfOzjYN5zHtX_PdudBc-45" value="爱好" style="text;html=1;strokeColor=none;fillColor=none;align=center;verticalAlign=middle;whiteSpace=wrap;rounded=0;rotation=-45;direction=east;" vertex="1" parent="1">
          <mxGeometry x="630.14" y="487.20000000000005" width="60" height="30" as="geometry" />
        </mxCell>
        <mxCell id="QqfOzjYN5zHtX_PdudBc-50" value="家庭" style="text;html=1;strokeColor=none;fillColor=none;align=center;verticalAlign=middle;whiteSpace=wrap;rounded=0;rotation=0;direction=east;" vertex="1" parent="1">
          <mxGeometry x="179.99999999999994" y="305.0199999999999" width="60" height="30" as="geometry" />
        </mxCell>
        <mxCell id="QqfOzjYN5zHtX_PdudBc-51" value="" style="endArrow=none;html=1;rounded=1;strokeColor=#a51d1d;strokeWidth=3;entryX=0;entryY=0;entryDx=0;entryDy=0;" edge="1" parent="1" target="QqfOzjYN5zHtX_PdudBc-25">
          <mxGeometry width="50" height="50" relative="1" as="geometry">
            <mxPoint x="480" y="250" as="sourcePoint" />
            <mxPoint x="450" y="200" as="targetPoint" />
          </mxGeometry>
        </mxCell>
        <mxCell id="QqfOzjYN5zHtX_PdudBc-52" value="" style="endArrow=none;html=1;rounded=1;strokeColor=#a51d1d;strokeWidth=3;entryX=0;entryY=0;entryDx=0;entryDy=0;exitX=0;exitY=0.5;exitDx=0;exitDy=0;" edge="1" parent="1" source="QqfOzjYN5zHtX_PdudBc-31" target="QqfOzjYN5zHtX_PdudBc-25">
          <mxGeometry width="50" height="50" relative="1" as="geometry">
            <mxPoint x="370" y="320" as="sourcePoint" />
            <mxPoint x="384" y="224" as="targetPoint" />
          </mxGeometry>
        </mxCell>
        <mxCell id="QqfOzjYN5zHtX_PdudBc-53" value="" style="endArrow=none;html=1;rounded=1;strokeColor=#a51d1d;strokeWidth=3;entryX=0;entryY=0.5;entryDx=0;entryDy=0;exitX=0;exitY=1;exitDx=0;exitDy=0;" edge="1" parent="1" source="QqfOzjYN5zHtX_PdudBc-23" target="QqfOzjYN5zHtX_PdudBc-31">
          <mxGeometry width="50" height="50" relative="1" as="geometry">
            <mxPoint x="380" y="330" as="sourcePoint" />
            <mxPoint x="384" y="224" as="targetPoint" />
          </mxGeometry>
        </mxCell>
        <mxCell id="QqfOzjYN5zHtX_PdudBc-54" value="" style="endArrow=none;html=1;rounded=1;strokeColor=#a51d1d;strokeWidth=3;entryX=0;entryY=1;entryDx=0;entryDy=0;" edge="1" parent="1" target="QqfOzjYN5zHtX_PdudBc-23">
          <mxGeometry width="50" height="50" relative="1" as="geometry">
            <mxPoint x="480" y="390" as="sourcePoint" />
            <mxPoint x="380" y="330" as="targetPoint" />
          </mxGeometry>
        </mxCell>
        <mxCell id="QqfOzjYN5zHtX_PdudBc-55" value="" style="endArrow=none;html=1;rounded=1;strokeColor=#a51d1d;strokeWidth=3;entryX=1;entryY=1;entryDx=0;entryDy=0;" edge="1" parent="1" target="QqfOzjYN5zHtX_PdudBc-31">
          <mxGeometry width="50" height="50" relative="1" as="geometry">
            <mxPoint x="480" y="390" as="sourcePoint" />
            <mxPoint x="540" y="380" as="targetPoint" />
          </mxGeometry>
        </mxCell>
        <mxCell id="QqfOzjYN5zHtX_PdudBc-56" value="" style="endArrow=none;html=1;rounded=1;strokeColor=#a51d1d;strokeWidth=3;entryX=1;entryY=0.5;entryDx=0;entryDy=0;exitX=1;exitY=1;exitDx=0;exitDy=0;" edge="1" parent="1" source="QqfOzjYN5zHtX_PdudBc-31" target="QqfOzjYN5zHtX_PdudBc-34">
          <mxGeometry width="50" height="50" relative="1" as="geometry">
            <mxPoint x="490" y="400" as="sourcePoint" />
            <mxPoint x="554" y="394" as="targetPoint" />
          </mxGeometry>
        </mxCell>
        <mxCell id="QqfOzjYN5zHtX_PdudBc-57" value="" style="endArrow=none;html=1;rounded=1;strokeColor=#a51d1d;strokeWidth=3;entryX=1;entryY=0;entryDx=0;entryDy=0;exitX=1;exitY=0.5;exitDx=0;exitDy=0;" edge="1" parent="1" source="QqfOzjYN5zHtX_PdudBc-34" target="QqfOzjYN5zHtX_PdudBc-31">
          <mxGeometry width="50" height="50" relative="1" as="geometry">
            <mxPoint x="554" y="394" as="sourcePoint" />
            <mxPoint x="520" y="330" as="targetPoint" />
          </mxGeometry>
        </mxCell>
        <mxCell id="QqfOzjYN5zHtX_PdudBc-58" value="" style="endArrow=none;html=1;rounded=1;strokeColor=#a51d1d;strokeWidth=3;entryX=1;entryY=0;entryDx=0;entryDy=0;exitX=0.5;exitY=0;exitDx=0;exitDy=0;" edge="1" parent="1" source="QqfOzjYN5zHtX_PdudBc-32" target="QqfOzjYN5zHtX_PdudBc-31">
          <mxGeometry width="50" height="50" relative="1" as="geometry">
            <mxPoint x="520" y="330" as="sourcePoint" />
            <mxPoint x="554" y="266" as="targetPoint" />
          </mxGeometry>
        </mxCell>
        <mxCell id="QqfOzjYN5zHtX_PdudBc-169" value="" style="ellipse;whiteSpace=wrap;html=1;aspect=fixed;fillColor=#e1d5e7;strokeColor=#9673a6;" vertex="1" parent="1">
          <mxGeometry x="880" y="-561" width="480" height="480" as="geometry" />
        </mxCell>
        <mxCell id="QqfOzjYN5zHtX_PdudBc-170" value="" style="endArrow=none;html=1;rounded=0;exitX=0;exitY=0.5;exitDx=0;exitDy=0;entryX=1;entryY=0.5;entryDx=0;entryDy=0;" edge="1" parent="1" target="QqfOzjYN5zHtX_PdudBc-169">
          <mxGeometry width="50" height="50" relative="1" as="geometry">
            <mxPoint x="889.9999999999993" y="-321" as="sourcePoint" />
            <mxPoint x="1170" y="-381" as="targetPoint" />
          </mxGeometry>
        </mxCell>
        <mxCell id="QqfOzjYN5zHtX_PdudBc-171" value="" style="ellipse;whiteSpace=wrap;html=1;aspect=fixed;opacity=40;fillColor=#e1d5e7;strokeColor=#9673a6;" vertex="1" parent="1">
          <mxGeometry x="902.5" y="-538.5" width="435" height="435" as="geometry" />
        </mxCell>
        <mxCell id="QqfOzjYN5zHtX_PdudBc-172" value="" style="ellipse;whiteSpace=wrap;html=1;aspect=fixed;opacity=40;fillColor=#e1d5e7;strokeColor=#9673a6;" vertex="1" parent="1">
          <mxGeometry x="927.81" y="-513.1800000000001" width="384.38" height="384.38" as="geometry" />
        </mxCell>
        <mxCell id="QqfOzjYN5zHtX_PdudBc-173" value="" style="ellipse;whiteSpace=wrap;html=1;aspect=fixed;opacity=40;fillColor=#e1d5e7;strokeColor=#9673a6;" vertex="1" parent="1">
          <mxGeometry x="945.5500000000001" y="-493.5" width="345" height="345" as="geometry" />
        </mxCell>
        <mxCell id="QqfOzjYN5zHtX_PdudBc-174" value="" style="ellipse;whiteSpace=wrap;html=1;aspect=fixed;opacity=40;fillColor=#d5e8d4;strokeColor=#82b366;" vertex="1" parent="1">
          <mxGeometry x="969.85" y="-471.14" width="300.29" height="300.29" as="geometry" />
        </mxCell>
        <mxCell id="QqfOzjYN5zHtX_PdudBc-175" value="" style="ellipse;whiteSpace=wrap;html=1;aspect=fixed;opacity=40;fillColor=#d5e8d4;strokeColor=#82b366;" vertex="1" parent="1">
          <mxGeometry x="989.95" y="-451.03" width="260.09" height="260.09" as="geometry" />
        </mxCell>
        <mxCell id="QqfOzjYN5zHtX_PdudBc-176" value="" style="ellipse;whiteSpace=wrap;html=1;aspect=fixed;opacity=40;fillColor=#d5e8d4;strokeColor=#82b366;" vertex="1" parent="1">
          <mxGeometry x="1009.94" y="-431.01" width="220.05" height="220.05" as="geometry" />
        </mxCell>
        <mxCell id="QqfOzjYN5zHtX_PdudBc-177" value="" style="ellipse;whiteSpace=wrap;html=1;aspect=fixed;opacity=40;fillColor=#d5e8d4;strokeColor=#82b366;" vertex="1" parent="1">
          <mxGeometry x="1029.94" y="-411" width="180.04" height="180.04" as="geometry" />
        </mxCell>
        <mxCell id="QqfOzjYN5zHtX_PdudBc-178" value="" style="ellipse;whiteSpace=wrap;html=1;aspect=fixed;opacity=40;fillColor=#fff2cc;strokeColor=#d6b656;" vertex="1" parent="1">
          <mxGeometry x="1049.94" y="-391" width="140.04" height="140.04" as="geometry" />
        </mxCell>
        <mxCell id="QqfOzjYN5zHtX_PdudBc-179" value="" style="ellipse;whiteSpace=wrap;html=1;aspect=fixed;opacity=40;fillColor=#fff2cc;strokeColor=#d6b656;" vertex="1" parent="1">
          <mxGeometry x="1069.98" y="-371.02" width="100.04" height="100.04" as="geometry" />
        </mxCell>
        <mxCell id="QqfOzjYN5zHtX_PdudBc-180" value="" style="ellipse;whiteSpace=wrap;html=1;aspect=fixed;opacity=40;fillColor=#fff2cc;strokeColor=#d6b656;" vertex="1" parent="1">
          <mxGeometry x="1089.95" y="-351.01" width="60.02" height="60.02" as="geometry" />
        </mxCell>
        <mxCell id="QqfOzjYN5zHtX_PdudBc-181" value="" style="ellipse;whiteSpace=wrap;html=1;aspect=fixed;opacity=40;" vertex="1" parent="1">
          <mxGeometry x="1104.96" y="-336.01" width="30.01" height="30.01" as="geometry" />
        </mxCell>
        <mxCell id="QqfOzjYN5zHtX_PdudBc-182" value="" style="endArrow=none;html=1;rounded=0;exitX=0;exitY=1;exitDx=0;exitDy=0;entryX=1;entryY=0;entryDx=0;entryDy=0;" edge="1" parent="1" source="QqfOzjYN5zHtX_PdudBc-169" target="QqfOzjYN5zHtX_PdudBc-169">
          <mxGeometry width="50" height="50" relative="1" as="geometry">
            <mxPoint x="1120" y="-251" as="sourcePoint" />
            <mxPoint x="1170" y="-301" as="targetPoint" />
          </mxGeometry>
        </mxCell>
        <mxCell id="QqfOzjYN5zHtX_PdudBc-183" value="" style="endArrow=none;html=1;rounded=0;exitX=0;exitY=0.5;exitDx=0;exitDy=0;entryX=1;entryY=0.5;entryDx=0;entryDy=0;" edge="1" parent="1" source="QqfOzjYN5zHtX_PdudBc-169">
          <mxGeometry width="50" height="50" relative="1" as="geometry">
            <mxPoint x="880" y="-321" as="sourcePoint" />
            <mxPoint x="1350.000000000001" y="-321" as="targetPoint" />
          </mxGeometry>
        </mxCell>
        <mxCell id="QqfOzjYN5zHtX_PdudBc-184" value="" style="endArrow=none;html=1;rounded=0;exitX=0;exitY=0;exitDx=0;exitDy=0;entryX=1;entryY=1;entryDx=0;entryDy=0;" edge="1" parent="1" source="QqfOzjYN5zHtX_PdudBc-169" target="QqfOzjYN5zHtX_PdudBc-169">
          <mxGeometry width="50" height="50" relative="1" as="geometry">
            <mxPoint x="1120" y="-331" as="sourcePoint" />
            <mxPoint x="1170" y="-381" as="targetPoint" />
          </mxGeometry>
        </mxCell>
        <mxCell id="QqfOzjYN5zHtX_PdudBc-185" value="" style="endArrow=none;html=1;rounded=0;entryX=0.5;entryY=0;entryDx=0;entryDy=0;exitX=0.5;exitY=1;exitDx=0;exitDy=0;" edge="1" parent="1" source="QqfOzjYN5zHtX_PdudBc-169" target="QqfOzjYN5zHtX_PdudBc-169">
          <mxGeometry width="50" height="50" relative="1" as="geometry">
            <mxPoint x="1120" y="-331" as="sourcePoint" />
            <mxPoint x="1170" y="-381" as="targetPoint" />
          </mxGeometry>
        </mxCell>
        <mxCell id="QqfOzjYN5zHtX_PdudBc-186" value="职业发展" style="text;html=1;strokeColor=none;fillColor=none;align=center;verticalAlign=middle;whiteSpace=wrap;rounded=0;rotation=0;" vertex="1" parent="1">
          <mxGeometry x="1089.95" y="-591" width="60" height="30" as="geometry" />
        </mxCell>
        <mxCell id="QqfOzjYN5zHtX_PdudBc-187" value="价值观" style="text;html=1;strokeColor=none;fillColor=none;align=center;verticalAlign=middle;whiteSpace=wrap;rounded=0;rotation=45;" vertex="1" parent="1">
          <mxGeometry x="1270.1399999999999" y="-521.54" width="60" height="30" as="geometry" />
        </mxCell>
        <mxCell id="QqfOzjYN5zHtX_PdudBc-188" value="技术栈" style="text;html=1;strokeColor=none;fillColor=none;align=center;verticalAlign=middle;whiteSpace=wrap;rounded=0;rotation=0;" vertex="1" parent="1">
          <mxGeometry x="1360" y="-335.98" width="60" height="30" as="geometry" />
        </mxCell>
        <mxCell id="QqfOzjYN5zHtX_PdudBc-189" value="学习能力" style="text;html=1;strokeColor=none;fillColor=none;align=center;verticalAlign=middle;whiteSpace=wrap;rounded=0;rotation=-45;" vertex="1" parent="1">
          <mxGeometry x="908.5" y="-516.54" width="60" height="30" as="geometry" />
        </mxCell>
        <mxCell id="QqfOzjYN5zHtX_PdudBc-190" value="财务管理" style="text;html=1;strokeColor=none;fillColor=none;align=center;verticalAlign=middle;whiteSpace=wrap;rounded=0;rotation=45;direction=east;" vertex="1" parent="1">
          <mxGeometry x="908.85" y="-154.8" width="60" height="30" as="geometry" />
        </mxCell>
        <mxCell id="QqfOzjYN5zHtX_PdudBc-191" value="基础理论" style="text;html=1;strokeColor=none;fillColor=none;align=center;verticalAlign=middle;whiteSpace=wrap;rounded=0;rotation=0;direction=east;" vertex="1" parent="1">
          <mxGeometry x="1090" y="-81" width="60" height="30" as="geometry" />
        </mxCell>
        <mxCell id="QqfOzjYN5zHtX_PdudBc-192" value="进阶理论" style="text;html=1;strokeColor=none;fillColor=none;align=center;verticalAlign=middle;whiteSpace=wrap;rounded=0;rotation=-45;direction=east;" vertex="1" parent="1">
          <mxGeometry x="1270.1399999999999" y="-153.79999999999995" width="60" height="30" as="geometry" />
        </mxCell>
        <mxCell id="QqfOzjYN5zHtX_PdudBc-193" value="时间管理" style="text;html=1;strokeColor=none;fillColor=none;align=center;verticalAlign=middle;whiteSpace=wrap;rounded=0;rotation=0;direction=east;" vertex="1" parent="1">
          <mxGeometry x="820" y="-335.9800000000001" width="60" height="30" as="geometry" />
        </mxCell>
        <mxCell id="QqfOzjYN5zHtX_PdudBc-194" value="" style="endArrow=none;html=1;rounded=1;strokeColor=#330505;strokeWidth=3;entryX=0;entryY=0;entryDx=0;entryDy=0;exitX=0.5;exitY=0;exitDx=0;exitDy=0;" edge="1" parent="1" target="QqfOzjYN5zHtX_PdudBc-174" source="QqfOzjYN5zHtX_PdudBc-178">
          <mxGeometry width="50" height="50" relative="1" as="geometry">
            <mxPoint x="1120" y="-391" as="sourcePoint" />
            <mxPoint x="1090" y="-441" as="targetPoint" />
          </mxGeometry>
        </mxCell>
        <mxCell id="QqfOzjYN5zHtX_PdudBc-195" value="" style="endArrow=none;html=1;rounded=1;strokeColor=#330505;strokeWidth=3;entryX=0;entryY=0;entryDx=0;entryDy=0;exitX=0;exitY=0.5;exitDx=0;exitDy=0;" edge="1" parent="1" source="QqfOzjYN5zHtX_PdudBc-178" target="QqfOzjYN5zHtX_PdudBc-174">
          <mxGeometry width="50" height="50" relative="1" as="geometry">
            <mxPoint x="1010" y="-321" as="sourcePoint" />
            <mxPoint x="1024" y="-417" as="targetPoint" />
          </mxGeometry>
        </mxCell>
        <mxCell id="QqfOzjYN5zHtX_PdudBc-196" value="" style="endArrow=none;html=1;rounded=1;strokeColor=#330505;strokeWidth=3;entryX=0;entryY=0.5;entryDx=0;entryDy=0;exitX=0;exitY=1;exitDx=0;exitDy=0;" edge="1" parent="1" source="QqfOzjYN5zHtX_PdudBc-179" target="QqfOzjYN5zHtX_PdudBc-178">
          <mxGeometry width="50" height="50" relative="1" as="geometry">
            <mxPoint x="1020" y="-311" as="sourcePoint" />
            <mxPoint x="1024" y="-417" as="targetPoint" />
          </mxGeometry>
        </mxCell>
        <mxCell id="QqfOzjYN5zHtX_PdudBc-197" value="" style="endArrow=none;html=1;rounded=1;strokeColor=#330505;strokeWidth=3;entryX=0;entryY=1;entryDx=0;entryDy=0;" edge="1" parent="1" target="QqfOzjYN5zHtX_PdudBc-179">
          <mxGeometry width="50" height="50" relative="1" as="geometry">
            <mxPoint x="1120" y="-210" as="sourcePoint" />
            <mxPoint x="1040" y="-240" as="targetPoint" />
          </mxGeometry>
        </mxCell>
        <mxCell id="QqfOzjYN5zHtX_PdudBc-198" value="" style="endArrow=none;html=1;rounded=1;strokeColor=#330505;strokeWidth=3;entryX=1;entryY=1;entryDx=0;entryDy=0;exitX=0.5;exitY=1;exitDx=0;exitDy=0;" edge="1" parent="1" target="QqfOzjYN5zHtX_PdudBc-178" source="QqfOzjYN5zHtX_PdudBc-176">
          <mxGeometry width="50" height="50" relative="1" as="geometry">
            <mxPoint x="1120" y="-251" as="sourcePoint" />
            <mxPoint x="1180" y="-261" as="targetPoint" />
          </mxGeometry>
        </mxCell>
        <mxCell id="QqfOzjYN5zHtX_PdudBc-199" value="" style="endArrow=none;html=1;rounded=1;strokeColor=#330505;strokeWidth=3;entryX=1;entryY=0.5;entryDx=0;entryDy=0;exitX=1;exitY=1;exitDx=0;exitDy=0;" edge="1" parent="1" source="QqfOzjYN5zHtX_PdudBc-178" target="QqfOzjYN5zHtX_PdudBc-175">
          <mxGeometry width="50" height="50" relative="1" as="geometry">
            <mxPoint x="1130" y="-241" as="sourcePoint" />
            <mxPoint x="1194" y="-247" as="targetPoint" />
          </mxGeometry>
        </mxCell>
        <mxCell id="QqfOzjYN5zHtX_PdudBc-200" value="" style="endArrow=none;html=1;rounded=1;strokeColor=#330505;strokeWidth=3;entryX=1;entryY=0;entryDx=0;entryDy=0;exitX=1;exitY=0.5;exitDx=0;exitDy=0;" edge="1" parent="1" source="QqfOzjYN5zHtX_PdudBc-175" target="QqfOzjYN5zHtX_PdudBc-176">
          <mxGeometry width="50" height="50" relative="1" as="geometry">
            <mxPoint x="1194" y="-247" as="sourcePoint" />
            <mxPoint x="1160" y="-311" as="targetPoint" />
          </mxGeometry>
        </mxCell>
        <mxCell id="QqfOzjYN5zHtX_PdudBc-201" value="" style="endArrow=none;html=1;rounded=1;strokeColor=#330505;strokeWidth=3;entryX=1;entryY=0;entryDx=0;entryDy=0;exitX=0.5;exitY=0;exitDx=0;exitDy=0;" edge="1" parent="1" source="QqfOzjYN5zHtX_PdudBc-178" target="QqfOzjYN5zHtX_PdudBc-176">
          <mxGeometry width="50" height="50" relative="1" as="geometry">
            <mxPoint x="1160" y="-311" as="sourcePoint" />
            <mxPoint x="1194" y="-375" as="targetPoint" />
          </mxGeometry>
        </mxCell>
        <mxCell id="QqfOzjYN5zHtX_PdudBc-203" value="" style="ellipse;whiteSpace=wrap;html=1;aspect=fixed;fillColor=#b0e3e6;strokeColor=#0e8088;container=0;" vertex="1" parent="1">
          <mxGeometry x="880" y="79.99000000000001" width="480" height="480" as="geometry" />
        </mxCell>
        <mxCell id="QqfOzjYN5zHtX_PdudBc-205" value="" style="ellipse;whiteSpace=wrap;html=1;aspect=fixed;opacity=40;fillColor=#b0e3e6;strokeColor=#0e8088;container=0;" vertex="1" parent="1">
          <mxGeometry x="902.5" y="102.49000000000001" width="435" height="435" as="geometry" />
        </mxCell>
        <mxCell id="QqfOzjYN5zHtX_PdudBc-206" value="" style="ellipse;whiteSpace=wrap;html=1;aspect=fixed;opacity=40;fillColor=#b0e3e6;strokeColor=#0e8088;container=0;" vertex="1" parent="1">
          <mxGeometry x="927.81" y="127.81" width="384.38" height="384.38" as="geometry" />
        </mxCell>
        <mxCell id="QqfOzjYN5zHtX_PdudBc-207" value="" style="ellipse;whiteSpace=wrap;html=1;aspect=fixed;opacity=40;fillColor=#b0e3e6;strokeColor=#0e8088;container=0;" vertex="1" parent="1">
          <mxGeometry x="949.45" y="149.45000000000005" width="341.1" height="341.1" as="geometry" />
        </mxCell>
        <mxCell id="QqfOzjYN5zHtX_PdudBc-208" value="" style="ellipse;whiteSpace=wrap;html=1;aspect=fixed;opacity=40;fillColor=#e1d5e7;strokeColor=#9673a6;container=0;" vertex="1" parent="1">
          <mxGeometry x="969.85" y="169.85000000000002" width="300.29" height="300.29" as="geometry" />
        </mxCell>
        <mxCell id="QqfOzjYN5zHtX_PdudBc-209" value="" style="ellipse;whiteSpace=wrap;html=1;aspect=fixed;opacity=40;fillColor=#e1d5e7;strokeColor=#9673a6;container=0;" vertex="1" parent="1">
          <mxGeometry x="989.95" y="189.96000000000004" width="260.09" height="260.09" as="geometry" />
        </mxCell>
        <mxCell id="QqfOzjYN5zHtX_PdudBc-210" value="" style="ellipse;whiteSpace=wrap;html=1;aspect=fixed;opacity=40;fillColor=#e1d5e7;strokeColor=#9673a6;container=0;" vertex="1" parent="1">
          <mxGeometry x="1009.94" y="209.98000000000002" width="220.05" height="220.05" as="geometry" />
        </mxCell>
        <mxCell id="QqfOzjYN5zHtX_PdudBc-211" value="" style="ellipse;whiteSpace=wrap;html=1;aspect=fixed;opacity=40;fillColor=#e1d5e7;strokeColor=#9673a6;container=0;" vertex="1" parent="1">
          <mxGeometry x="1029.94" y="229.99" width="180.04" height="180.04" as="geometry" />
        </mxCell>
        <mxCell id="QqfOzjYN5zHtX_PdudBc-212" value="" style="ellipse;whiteSpace=wrap;html=1;aspect=fixed;opacity=40;fillColor=#d5e8d4;strokeColor=#82b366;container=0;" vertex="1" parent="1">
          <mxGeometry x="1049.94" y="249.99" width="140.04" height="140.04" as="geometry" />
        </mxCell>
        <mxCell id="QqfOzjYN5zHtX_PdudBc-213" value="" style="ellipse;whiteSpace=wrap;html=1;aspect=fixed;opacity=40;fillColor=#d5e8d4;strokeColor=#82b366;container=0;" vertex="1" parent="1">
          <mxGeometry x="1069.98" y="269.96999999999997" width="100.04" height="100.04" as="geometry" />
        </mxCell>
        <mxCell id="QqfOzjYN5zHtX_PdudBc-214" value="" style="ellipse;whiteSpace=wrap;html=1;aspect=fixed;opacity=40;fillColor=#d5e8d4;strokeColor=#82b366;container=0;" vertex="1" parent="1">
          <mxGeometry x="1089.95" y="289.97999999999996" width="60.02" height="60.02" as="geometry" />
        </mxCell>
        <mxCell id="QqfOzjYN5zHtX_PdudBc-215" value="" style="ellipse;whiteSpace=wrap;html=1;aspect=fixed;opacity=40;fillColor=#d5e8d4;strokeColor=#82b366;container=0;" vertex="1" parent="1">
          <mxGeometry x="1104.96" y="304.97999999999996" width="30.01" height="30.01" as="geometry" />
        </mxCell>
        <mxCell id="QqfOzjYN5zHtX_PdudBc-216" value="" style="endArrow=none;html=1;rounded=0;exitX=0;exitY=1;exitDx=0;exitDy=0;entryX=1;entryY=0;entryDx=0;entryDy=0;" edge="1" parent="1" source="QqfOzjYN5zHtX_PdudBc-203" target="QqfOzjYN5zHtX_PdudBc-203">
          <mxGeometry width="50" height="50" relative="1" as="geometry">
            <mxPoint x="1120" y="389.99" as="sourcePoint" />
            <mxPoint x="1170" y="339.99" as="targetPoint" />
          </mxGeometry>
        </mxCell>
        <mxCell id="QqfOzjYN5zHtX_PdudBc-218" value="" style="endArrow=none;html=1;rounded=0;exitX=0;exitY=0;exitDx=0;exitDy=0;entryX=1;entryY=1;entryDx=0;entryDy=0;" edge="1" parent="1" source="QqfOzjYN5zHtX_PdudBc-203" target="QqfOzjYN5zHtX_PdudBc-203">
          <mxGeometry width="50" height="50" relative="1" as="geometry">
            <mxPoint x="1120" y="309.99" as="sourcePoint" />
            <mxPoint x="1170" y="259.98999999999995" as="targetPoint" />
          </mxGeometry>
        </mxCell>
        <mxCell id="QqfOzjYN5zHtX_PdudBc-221" value="精神财富" style="text;html=1;strokeColor=none;fillColor=none;align=center;verticalAlign=middle;whiteSpace=wrap;rounded=0;rotation=45;container=0;" vertex="1" parent="1">
          <mxGeometry x="1270.1399999999999" y="119.45000000000005" width="60" height="30" as="geometry" />
        </mxCell>
        <mxCell id="QqfOzjYN5zHtX_PdudBc-223" value="投资" style="text;html=1;strokeColor=none;fillColor=none;align=center;verticalAlign=middle;whiteSpace=wrap;rounded=0;rotation=-45;container=0;" vertex="1" parent="1">
          <mxGeometry x="908.5" y="124.45000000000005" width="60" height="30" as="geometry" />
        </mxCell>
        <mxCell id="QqfOzjYN5zHtX_PdudBc-224" value="现金流" style="text;html=1;strokeColor=none;fillColor=none;align=center;verticalAlign=middle;whiteSpace=wrap;rounded=0;rotation=45;direction=east;container=0;" vertex="1" parent="1">
          <mxGeometry x="908.85" y="486.19" width="60" height="30" as="geometry" />
        </mxCell>
        <mxCell id="QqfOzjYN5zHtX_PdudBc-226" value="不动产" style="text;html=1;strokeColor=none;fillColor=none;align=center;verticalAlign=middle;whiteSpace=wrap;rounded=0;rotation=-45;direction=east;container=0;" vertex="1" parent="1">
          <mxGeometry x="1270.1399999999999" y="487.19000000000005" width="60" height="30" as="geometry" />
        </mxCell>
        <mxCell id="QqfOzjYN5zHtX_PdudBc-228" value="" style="endArrow=none;html=1;rounded=1;strokeColor=#FF99FF;strokeWidth=3;entryX=1;entryY=0;entryDx=0;entryDy=0;exitX=1;exitY=1;exitDx=0;exitDy=0;" edge="1" parent="1" target="QqfOzjYN5zHtX_PdudBc-211" source="QqfOzjYN5zHtX_PdudBc-215">
          <mxGeometry width="50" height="50" relative="1" as="geometry">
            <mxPoint x="1120" y="249.99" as="sourcePoint" />
            <mxPoint x="1090" y="199.99" as="targetPoint" />
          </mxGeometry>
        </mxCell>
        <mxCell id="QqfOzjYN5zHtX_PdudBc-229" value="" style="endArrow=none;html=1;rounded=1;strokeColor=#FF99FF;strokeWidth=3;exitX=0;exitY=1;exitDx=0;exitDy=0;entryX=0;entryY=0;entryDx=0;entryDy=0;" edge="1" parent="1" source="QqfOzjYN5zHtX_PdudBc-213" target="QqfOzjYN5zHtX_PdudBc-214">
          <mxGeometry width="50" height="50" relative="1" as="geometry">
            <mxPoint x="1010" y="319.99" as="sourcePoint" />
            <mxPoint x="1100" y="300" as="targetPoint" />
          </mxGeometry>
        </mxCell>
        <mxCell id="QqfOzjYN5zHtX_PdudBc-231" value="" style="endArrow=none;html=1;rounded=1;strokeColor=#FF99FF;strokeWidth=3;entryX=0;entryY=1;entryDx=0;entryDy=0;exitX=1;exitY=1;exitDx=0;exitDy=0;" edge="1" parent="1" target="QqfOzjYN5zHtX_PdudBc-213" source="QqfOzjYN5zHtX_PdudBc-215">
          <mxGeometry width="50" height="50" relative="1" as="geometry">
            <mxPoint x="1120" y="389.99" as="sourcePoint" />
            <mxPoint x="1020" y="329.99" as="targetPoint" />
          </mxGeometry>
        </mxCell>
        <mxCell id="QqfOzjYN5zHtX_PdudBc-407" value="" style="endArrow=none;html=1;rounded=1;strokeColor=#FF99FF;strokeWidth=3;entryX=1;entryY=0;entryDx=0;entryDy=0;exitX=0;exitY=0;exitDx=0;exitDy=0;" edge="1" parent="1" source="QqfOzjYN5zHtX_PdudBc-214" target="QqfOzjYN5zHtX_PdudBc-211">
          <mxGeometry width="50" height="50" relative="1" as="geometry">
            <mxPoint x="1165" y="365" as="sourcePoint" />
            <mxPoint x="1194" y="266" as="targetPoint" />
          </mxGeometry>
        </mxCell>
        <mxCell id="QqfOzjYN5zHtX_PdudBc-272" value="" style="ellipse;whiteSpace=wrap;html=1;aspect=fixed;fillColor=#dae8fc;strokeColor=#6c8ebf;" vertex="1" parent="1">
          <mxGeometry x="-402.5" y="79.98999999999995" width="480" height="480" as="geometry" />
        </mxCell>
        <mxCell id="QqfOzjYN5zHtX_PdudBc-274" value="" style="ellipse;whiteSpace=wrap;html=1;aspect=fixed;opacity=40;fillColor=#dae8fc;strokeColor=#6c8ebf;" vertex="1" parent="1">
          <mxGeometry x="-380" y="102.48999999999995" width="435" height="435" as="geometry" />
        </mxCell>
        <mxCell id="QqfOzjYN5zHtX_PdudBc-275" value="" style="ellipse;whiteSpace=wrap;html=1;aspect=fixed;opacity=40;fillColor=#dae8fc;strokeColor=#6c8ebf;" vertex="1" parent="1">
          <mxGeometry x="-354.69000000000005" y="127.80999999999989" width="384.38" height="384.38" as="geometry" />
        </mxCell>
        <mxCell id="QqfOzjYN5zHtX_PdudBc-276" value="" style="ellipse;whiteSpace=wrap;html=1;aspect=fixed;opacity=40;fillColor=#dae8fc;strokeColor=#6c8ebf;" vertex="1" parent="1">
          <mxGeometry x="-333.04999999999995" y="149.45" width="341.1" height="341.1" as="geometry" />
        </mxCell>
        <mxCell id="QqfOzjYN5zHtX_PdudBc-277" value="" style="ellipse;whiteSpace=wrap;html=1;aspect=fixed;opacity=40;fillColor=#ffe6cc;strokeColor=#d79b00;" vertex="1" parent="1">
          <mxGeometry x="-312.65" y="169.85" width="300.29" height="300.29" as="geometry" />
        </mxCell>
        <mxCell id="QqfOzjYN5zHtX_PdudBc-278" value="" style="ellipse;whiteSpace=wrap;html=1;aspect=fixed;opacity=40;fillColor=#ffe6cc;strokeColor=#d79b00;" vertex="1" parent="1">
          <mxGeometry x="-292.54999999999995" y="189.96" width="260.09" height="260.09" as="geometry" />
        </mxCell>
        <mxCell id="QqfOzjYN5zHtX_PdudBc-279" value="" style="ellipse;whiteSpace=wrap;html=1;aspect=fixed;opacity=40;fillColor=#ffe6cc;strokeColor=#d79b00;" vertex="1" parent="1">
          <mxGeometry x="-272.55999999999995" y="209.98" width="220.05" height="220.05" as="geometry" />
        </mxCell>
        <mxCell id="QqfOzjYN5zHtX_PdudBc-280" value="" style="ellipse;whiteSpace=wrap;html=1;aspect=fixed;opacity=40;fillColor=#ffe6cc;strokeColor=#d79b00;" vertex="1" parent="1">
          <mxGeometry x="-252.55999999999995" y="229.98999999999998" width="180.04" height="180.04" as="geometry" />
        </mxCell>
        <mxCell id="QqfOzjYN5zHtX_PdudBc-281" value="" style="ellipse;whiteSpace=wrap;html=1;aspect=fixed;opacity=40;fillColor=#dae8fc;strokeColor=#6c8ebf;" vertex="1" parent="1">
          <mxGeometry x="-232.55999999999995" y="249.98999999999998" width="140.04" height="140.04" as="geometry" />
        </mxCell>
        <mxCell id="QqfOzjYN5zHtX_PdudBc-282" value="" style="ellipse;whiteSpace=wrap;html=1;aspect=fixed;opacity=40;fillColor=#dae8fc;strokeColor=#6c8ebf;" vertex="1" parent="1">
          <mxGeometry x="-212.51999999999998" y="269.97" width="100.04" height="100.04" as="geometry" />
        </mxCell>
        <mxCell id="QqfOzjYN5zHtX_PdudBc-283" value="" style="ellipse;whiteSpace=wrap;html=1;aspect=fixed;opacity=40;fillColor=#dae8fc;strokeColor=#6c8ebf;" vertex="1" parent="1">
          <mxGeometry x="-192.54999999999995" y="289.98" width="60.02" height="60.02" as="geometry" />
        </mxCell>
        <mxCell id="QqfOzjYN5zHtX_PdudBc-284" value="" style="ellipse;whiteSpace=wrap;html=1;aspect=fixed;opacity=40;fillColor=#f5f5f5;fontColor=#333333;strokeColor=#666666;" vertex="1" parent="1">
          <mxGeometry x="-177.53999999999996" y="304.98" width="30.01" height="30.01" as="geometry" />
        </mxCell>
        <mxCell id="QqfOzjYN5zHtX_PdudBc-285" value="" style="endArrow=none;html=1;rounded=0;exitX=0;exitY=1;exitDx=0;exitDy=0;entryX=1;entryY=0;entryDx=0;entryDy=0;" edge="1" parent="1" source="QqfOzjYN5zHtX_PdudBc-272" target="QqfOzjYN5zHtX_PdudBc-272">
          <mxGeometry width="50" height="50" relative="1" as="geometry">
            <mxPoint x="-162.5" y="389.99" as="sourcePoint" />
            <mxPoint x="-112.5" y="339.99" as="targetPoint" />
          </mxGeometry>
        </mxCell>
        <mxCell id="QqfOzjYN5zHtX_PdudBc-287" value="" style="endArrow=none;html=1;rounded=0;exitX=0;exitY=0;exitDx=0;exitDy=0;entryX=1;entryY=1;entryDx=0;entryDy=0;" edge="1" parent="1" source="QqfOzjYN5zHtX_PdudBc-272" target="QqfOzjYN5zHtX_PdudBc-272">
          <mxGeometry width="50" height="50" relative="1" as="geometry">
            <mxPoint x="-162.5" y="309.99" as="sourcePoint" />
            <mxPoint x="-112.5" y="259.99" as="targetPoint" />
          </mxGeometry>
        </mxCell>
        <mxCell id="QqfOzjYN5zHtX_PdudBc-290" value="体检" style="text;html=1;strokeColor=none;fillColor=none;align=center;verticalAlign=middle;whiteSpace=wrap;rounded=0;rotation=45;" vertex="1" parent="1">
          <mxGeometry x="-12.360000000000127" y="119.44999999999999" width="60" height="30" as="geometry" />
        </mxCell>
        <mxCell id="QqfOzjYN5zHtX_PdudBc-292" value="父母" style="text;html=1;strokeColor=none;fillColor=none;align=center;verticalAlign=middle;whiteSpace=wrap;rounded=0;rotation=-45;" vertex="1" parent="1">
          <mxGeometry x="-374" y="124.44999999999999" width="60" height="30" as="geometry" />
        </mxCell>
        <mxCell id="QqfOzjYN5zHtX_PdudBc-293" value="保险" style="text;html=1;strokeColor=none;fillColor=none;align=center;verticalAlign=middle;whiteSpace=wrap;rounded=0;rotation=45;direction=east;" vertex="1" parent="1">
          <mxGeometry x="-373.6500000000001" y="486.18999999999994" width="60" height="30" as="geometry" />
        </mxCell>
        <mxCell id="QqfOzjYN5zHtX_PdudBc-295" value="兄弟" style="text;html=1;strokeColor=none;fillColor=none;align=center;verticalAlign=middle;whiteSpace=wrap;rounded=0;rotation=-45;direction=east;" vertex="1" parent="1">
          <mxGeometry x="-12.360000000000127" y="487.19000000000005" width="60" height="30" as="geometry" />
        </mxCell>
        <mxCell id="QqfOzjYN5zHtX_PdudBc-297" value="" style="endArrow=none;html=1;rounded=1;strokeColor=#994C00;strokeWidth=3;entryX=0;entryY=0;entryDx=0;entryDy=0;exitX=1;exitY=0;exitDx=0;exitDy=0;" edge="1" parent="1" target="QqfOzjYN5zHtX_PdudBc-276" source="QqfOzjYN5zHtX_PdudBc-283">
          <mxGeometry width="50" height="50" relative="1" as="geometry">
            <mxPoint x="-132.5" y="290.99" as="sourcePoint" />
            <mxPoint x="-192.5" y="199.98999999999998" as="targetPoint" />
          </mxGeometry>
        </mxCell>
        <mxCell id="QqfOzjYN5zHtX_PdudBc-298" value="" style="endArrow=none;html=1;rounded=1;strokeColor=#994C00;strokeWidth=3;entryX=0;entryY=0;entryDx=0;entryDy=0;exitX=0;exitY=1;exitDx=0;exitDy=0;" edge="1" parent="1" source="QqfOzjYN5zHtX_PdudBc-279" target="QqfOzjYN5zHtX_PdudBc-276">
          <mxGeometry width="50" height="50" relative="1" as="geometry">
            <mxPoint x="-272.5" y="319.99" as="sourcePoint" />
            <mxPoint x="-258.5" y="223.98999999999998" as="targetPoint" />
          </mxGeometry>
        </mxCell>
        <mxCell id="QqfOzjYN5zHtX_PdudBc-300" value="" style="endArrow=none;html=1;rounded=1;strokeColor=#994C00;strokeWidth=3;entryX=0;entryY=1;entryDx=0;entryDy=0;exitX=1;exitY=1;exitDx=0;exitDy=0;" edge="1" parent="1" target="QqfOzjYN5zHtX_PdudBc-279" source="QqfOzjYN5zHtX_PdudBc-277">
          <mxGeometry width="50" height="50" relative="1" as="geometry">
            <mxPoint x="-162.5" y="389.99" as="sourcePoint" />
            <mxPoint x="-262.5" y="329.99" as="targetPoint" />
          </mxGeometry>
        </mxCell>
        <mxCell id="QqfOzjYN5zHtX_PdudBc-303" value="" style="endArrow=none;html=1;rounded=1;strokeColor=#994C00;strokeWidth=3;entryX=1;entryY=0;entryDx=0;entryDy=0;exitX=1;exitY=1;exitDx=0;exitDy=0;" edge="1" parent="1" source="QqfOzjYN5zHtX_PdudBc-277" target="QqfOzjYN5zHtX_PdudBc-283">
          <mxGeometry width="50" height="50" relative="1" as="geometry">
            <mxPoint x="-88.5" y="393.99" as="sourcePoint" />
            <mxPoint x="-122.5" y="329.99" as="targetPoint" />
          </mxGeometry>
        </mxCell>
        <mxCell id="QqfOzjYN5zHtX_PdudBc-306" value="" style="ellipse;whiteSpace=wrap;html=1;aspect=fixed;fillColor=#fff2cc;strokeColor=#d6b656;container=0;" vertex="1" parent="1">
          <mxGeometry x="-402.54" y="-561.01" width="480" height="480" as="geometry" />
        </mxCell>
        <mxCell id="QqfOzjYN5zHtX_PdudBc-307" value="" style="endArrow=none;html=1;rounded=0;exitX=0;exitY=0.5;exitDx=0;exitDy=0;entryX=1;entryY=0.5;entryDx=0;entryDy=0;" edge="1" parent="1" target="QqfOzjYN5zHtX_PdudBc-306">
          <mxGeometry width="50" height="50" relative="1" as="geometry">
            <mxPoint x="-392.5400000000007" y="-321.01000000000005" as="sourcePoint" />
            <mxPoint x="-112.53999999999999" y="-381.0100000000001" as="targetPoint" />
          </mxGeometry>
        </mxCell>
        <mxCell id="QqfOzjYN5zHtX_PdudBc-308" value="" style="ellipse;whiteSpace=wrap;html=1;aspect=fixed;opacity=40;fillColor=#fff2cc;strokeColor=#d6b656;container=0;" vertex="1" parent="1">
          <mxGeometry x="-380.04" y="-538.51" width="435" height="435" as="geometry" />
        </mxCell>
        <mxCell id="QqfOzjYN5zHtX_PdudBc-309" value="" style="ellipse;whiteSpace=wrap;html=1;aspect=fixed;opacity=40;fillColor=#fff2cc;strokeColor=#d6b656;container=0;" vertex="1" parent="1">
          <mxGeometry x="-354.7300000000001" y="-513.1899999999999" width="384.38" height="384.38" as="geometry" />
        </mxCell>
        <mxCell id="QqfOzjYN5zHtX_PdudBc-310" value="" style="ellipse;whiteSpace=wrap;html=1;aspect=fixed;opacity=40;fillColor=#fff2cc;strokeColor=#d6b656;container=0;" vertex="1" parent="1">
          <mxGeometry x="-333.09" y="-491.55" width="341.1" height="341.1" as="geometry" />
        </mxCell>
        <mxCell id="QqfOzjYN5zHtX_PdudBc-311" value="" style="ellipse;whiteSpace=wrap;html=1;aspect=fixed;opacity=40;fillColor=#b1ddf0;strokeColor=#10739e;container=0;" vertex="1" parent="1">
          <mxGeometry x="-312.69" y="-471.15000000000003" width="300.29" height="300.29" as="geometry" />
        </mxCell>
        <mxCell id="QqfOzjYN5zHtX_PdudBc-312" value="" style="ellipse;whiteSpace=wrap;html=1;aspect=fixed;opacity=40;fillColor=#b1ddf0;strokeColor=#10739e;container=0;" vertex="1" parent="1">
          <mxGeometry x="-292.59" y="-451.04" width="260.09" height="260.09" as="geometry" />
        </mxCell>
        <mxCell id="QqfOzjYN5zHtX_PdudBc-313" value="" style="ellipse;whiteSpace=wrap;html=1;aspect=fixed;opacity=40;fillColor=#b1ddf0;strokeColor=#10739e;container=0;" vertex="1" parent="1">
          <mxGeometry x="-272.59999999999997" y="-431.02000000000004" width="220.05" height="220.05" as="geometry" />
        </mxCell>
        <mxCell id="QqfOzjYN5zHtX_PdudBc-314" value="" style="ellipse;whiteSpace=wrap;html=1;aspect=fixed;opacity=40;fillColor=#b1ddf0;strokeColor=#10739e;container=0;" vertex="1" parent="1">
          <mxGeometry x="-252.59999999999994" y="-411.01000000000005" width="180.04" height="180.04" as="geometry" />
        </mxCell>
        <mxCell id="QqfOzjYN5zHtX_PdudBc-315" value="" style="ellipse;whiteSpace=wrap;html=1;aspect=fixed;opacity=40;fillColor=#fad7ac;strokeColor=#b46504;container=0;" vertex="1" parent="1">
          <mxGeometry x="-232.59999999999994" y="-391.01000000000005" width="140.04" height="140.04" as="geometry" />
        </mxCell>
        <mxCell id="QqfOzjYN5zHtX_PdudBc-316" value="" style="ellipse;whiteSpace=wrap;html=1;aspect=fixed;opacity=40;fillColor=#fad7ac;strokeColor=#b46504;container=0;" vertex="1" parent="1">
          <mxGeometry x="-212.55999999999997" y="-371.0300000000001" width="100.04" height="100.04" as="geometry" />
        </mxCell>
        <mxCell id="QqfOzjYN5zHtX_PdudBc-317" value="" style="ellipse;whiteSpace=wrap;html=1;aspect=fixed;opacity=40;fillColor=#fad7ac;strokeColor=#b46504;container=0;" vertex="1" parent="1">
          <mxGeometry x="-192.58999999999995" y="-351.0200000000001" width="60.02" height="60.02" as="geometry" />
        </mxCell>
        <mxCell id="QqfOzjYN5zHtX_PdudBc-318" value="" style="ellipse;whiteSpace=wrap;html=1;aspect=fixed;opacity=40;fillColor=#fad7ac;strokeColor=#b46504;container=0;" vertex="1" parent="1">
          <mxGeometry x="-177.57999999999996" y="-336.0200000000001" width="30.01" height="30.01" as="geometry" />
        </mxCell>
        <mxCell id="QqfOzjYN5zHtX_PdudBc-319" value="" style="endArrow=none;html=1;rounded=0;exitX=0;exitY=1;exitDx=0;exitDy=0;entryX=1;entryY=0;entryDx=0;entryDy=0;" edge="1" parent="1" source="QqfOzjYN5zHtX_PdudBc-306" target="QqfOzjYN5zHtX_PdudBc-306">
          <mxGeometry width="50" height="50" relative="1" as="geometry">
            <mxPoint x="-162.54" y="-251.01000000000005" as="sourcePoint" />
            <mxPoint x="-112.53999999999999" y="-301.01000000000005" as="targetPoint" />
          </mxGeometry>
        </mxCell>
        <mxCell id="QqfOzjYN5zHtX_PdudBc-320" value="" style="endArrow=none;html=1;rounded=0;exitX=0;exitY=0.5;exitDx=0;exitDy=0;entryX=1;entryY=0.5;entryDx=0;entryDy=0;" edge="1" parent="1" source="QqfOzjYN5zHtX_PdudBc-306">
          <mxGeometry width="50" height="50" relative="1" as="geometry">
            <mxPoint x="-402.54" y="-321.01000000000005" as="sourcePoint" />
            <mxPoint x="67.46000000000092" y="-321.01000000000005" as="targetPoint" />
          </mxGeometry>
        </mxCell>
        <mxCell id="QqfOzjYN5zHtX_PdudBc-321" value="" style="endArrow=none;html=1;rounded=0;exitX=0;exitY=0;exitDx=0;exitDy=0;entryX=1;entryY=1;entryDx=0;entryDy=0;" edge="1" parent="1" source="QqfOzjYN5zHtX_PdudBc-306" target="QqfOzjYN5zHtX_PdudBc-306">
          <mxGeometry width="50" height="50" relative="1" as="geometry">
            <mxPoint x="-162.54" y="-331.01000000000005" as="sourcePoint" />
            <mxPoint x="-112.53999999999999" y="-381.0100000000001" as="targetPoint" />
          </mxGeometry>
        </mxCell>
        <mxCell id="QqfOzjYN5zHtX_PdudBc-322" value="" style="endArrow=none;html=1;rounded=0;entryX=0.5;entryY=0;entryDx=0;entryDy=0;exitX=0.5;exitY=1;exitDx=0;exitDy=0;" edge="1" parent="1" source="QqfOzjYN5zHtX_PdudBc-306" target="QqfOzjYN5zHtX_PdudBc-306">
          <mxGeometry width="50" height="50" relative="1" as="geometry">
            <mxPoint x="-162.54" y="-331.01000000000005" as="sourcePoint" />
            <mxPoint x="-112.53999999999999" y="-381.0100000000001" as="targetPoint" />
          </mxGeometry>
        </mxCell>
        <mxCell id="QqfOzjYN5zHtX_PdudBc-323" value="互信尊重" style="text;html=1;strokeColor=none;fillColor=none;align=center;verticalAlign=middle;whiteSpace=wrap;rounded=0;rotation=0;container=0;" vertex="1" parent="1">
          <mxGeometry x="-192.58999999999995" y="-591.01" width="60" height="30" as="geometry" />
        </mxCell>
        <mxCell id="QqfOzjYN5zHtX_PdudBc-324" value="沟通能力" style="text;html=1;strokeColor=none;fillColor=none;align=center;verticalAlign=middle;whiteSpace=wrap;rounded=0;rotation=45;container=0;" vertex="1" parent="1">
          <mxGeometry x="-12.400000000000126" y="-521.55" width="60" height="30" as="geometry" />
        </mxCell>
        <mxCell id="QqfOzjYN5zHtX_PdudBc-325" value="共同兴趣" style="text;html=1;strokeColor=none;fillColor=none;align=center;verticalAlign=middle;whiteSpace=wrap;rounded=0;rotation=0;container=0;" vertex="1" parent="1">
          <mxGeometry x="77.46000000000001" y="-335.9900000000001" width="60" height="30" as="geometry" />
        </mxCell>
        <mxCell id="QqfOzjYN5zHtX_PdudBc-326" value="个人空间" style="text;html=1;strokeColor=none;fillColor=none;align=center;verticalAlign=middle;whiteSpace=wrap;rounded=0;rotation=-45;container=0;" vertex="1" parent="1">
          <mxGeometry x="-374.04" y="-516.55" width="60" height="30" as="geometry" />
        </mxCell>
        <mxCell id="QqfOzjYN5zHtX_PdudBc-327" value="应对冲突" style="text;html=1;strokeColor=none;fillColor=none;align=center;verticalAlign=middle;whiteSpace=wrap;rounded=0;rotation=45;direction=east;container=0;" vertex="1" parent="1">
          <mxGeometry x="-373.69" y="-154.81000000000006" width="60" height="30" as="geometry" />
        </mxCell>
        <mxCell id="QqfOzjYN5zHtX_PdudBc-328" value="共同目标" style="text;html=1;strokeColor=none;fillColor=none;align=center;verticalAlign=middle;whiteSpace=wrap;rounded=0;rotation=0;direction=east;container=0;" vertex="1" parent="1">
          <mxGeometry x="-192.54" y="-81.01000000000005" width="60" height="30" as="geometry" />
        </mxCell>
        <mxCell id="QqfOzjYN5zHtX_PdudBc-329" value="庆祝快乐" style="text;html=1;strokeColor=none;fillColor=none;align=center;verticalAlign=middle;whiteSpace=wrap;rounded=0;rotation=-45;direction=east;container=0;" vertex="1" parent="1">
          <mxGeometry x="-12.400000000000126" y="-153.81" width="60" height="30" as="geometry" />
        </mxCell>
        <mxCell id="QqfOzjYN5zHtX_PdudBc-330" value="支持关怀" style="text;html=1;strokeColor=none;fillColor=none;align=center;verticalAlign=middle;whiteSpace=wrap;rounded=0;rotation=0;direction=east;container=0;" vertex="1" parent="1">
          <mxGeometry x="-462.54" y="-335.9900000000002" width="60" height="30" as="geometry" />
        </mxCell>
        <mxCell id="QqfOzjYN5zHtX_PdudBc-331" value="" style="endArrow=none;html=1;rounded=1;strokeColor=#FF9933;strokeWidth=3;entryX=0;entryY=0;entryDx=0;entryDy=0;exitX=0.5;exitY=0;exitDx=0;exitDy=0;" edge="1" parent="1" target="QqfOzjYN5zHtX_PdudBc-313" source="QqfOzjYN5zHtX_PdudBc-310">
          <mxGeometry width="50" height="50" relative="1" as="geometry">
            <mxPoint x="-162.54" y="-391.01000000000005" as="sourcePoint" />
            <mxPoint x="-192.54" y="-441.01000000000005" as="targetPoint" />
          </mxGeometry>
        </mxCell>
        <mxCell id="QqfOzjYN5zHtX_PdudBc-332" value="" style="endArrow=none;html=1;rounded=1;strokeColor=#FF9933;strokeWidth=3;entryX=0;entryY=0;entryDx=0;entryDy=0;exitX=0;exitY=0.5;exitDx=0;exitDy=0;" edge="1" parent="1" source="QqfOzjYN5zHtX_PdudBc-308" target="QqfOzjYN5zHtX_PdudBc-313">
          <mxGeometry width="50" height="50" relative="1" as="geometry">
            <mxPoint x="-272.54" y="-321.01000000000005" as="sourcePoint" />
            <mxPoint x="-258.54" y="-417.01000000000005" as="targetPoint" />
          </mxGeometry>
        </mxCell>
        <mxCell id="QqfOzjYN5zHtX_PdudBc-333" value="" style="endArrow=none;html=1;rounded=1;strokeColor=#FF9933;strokeWidth=3;entryX=0;entryY=0.5;entryDx=0;entryDy=0;exitX=0;exitY=1;exitDx=0;exitDy=0;" edge="1" parent="1" source="QqfOzjYN5zHtX_PdudBc-313" target="QqfOzjYN5zHtX_PdudBc-308">
          <mxGeometry width="50" height="50" relative="1" as="geometry">
            <mxPoint x="-262.54" y="-311.01000000000005" as="sourcePoint" />
            <mxPoint x="-258.54" y="-417.01000000000005" as="targetPoint" />
          </mxGeometry>
        </mxCell>
        <mxCell id="QqfOzjYN5zHtX_PdudBc-334" value="" style="endArrow=none;html=1;rounded=1;strokeColor=#FF9933;strokeWidth=3;entryX=0;entryY=1;entryDx=0;entryDy=0;exitX=0.5;exitY=1;exitDx=0;exitDy=0;" edge="1" parent="1" target="QqfOzjYN5zHtX_PdudBc-313" source="QqfOzjYN5zHtX_PdudBc-316">
          <mxGeometry width="50" height="50" relative="1" as="geometry">
            <mxPoint x="-162.54" y="-251.01000000000005" as="sourcePoint" />
            <mxPoint x="-262.54" y="-311.01000000000005" as="targetPoint" />
          </mxGeometry>
        </mxCell>
        <mxCell id="QqfOzjYN5zHtX_PdudBc-335" value="" style="endArrow=none;html=1;rounded=1;strokeColor=#FF9933;strokeWidth=3;entryX=1;entryY=1;entryDx=0;entryDy=0;exitX=0.5;exitY=1;exitDx=0;exitDy=0;" edge="1" parent="1" target="QqfOzjYN5zHtX_PdudBc-309" source="QqfOzjYN5zHtX_PdudBc-316">
          <mxGeometry width="50" height="50" relative="1" as="geometry">
            <mxPoint x="-162.54" y="-251.01000000000005" as="sourcePoint" />
            <mxPoint x="-102.53999999999999" y="-261.01000000000005" as="targetPoint" />
          </mxGeometry>
        </mxCell>
        <mxCell id="QqfOzjYN5zHtX_PdudBc-336" value="" style="endArrow=none;html=1;rounded=1;strokeColor=#FF9933;strokeWidth=3;entryX=1;entryY=0.5;entryDx=0;entryDy=0;exitX=1;exitY=1;exitDx=0;exitDy=0;" edge="1" parent="1" source="QqfOzjYN5zHtX_PdudBc-309" target="QqfOzjYN5zHtX_PdudBc-313">
          <mxGeometry width="50" height="50" relative="1" as="geometry">
            <mxPoint x="-152.54" y="-241.01000000000005" as="sourcePoint" />
            <mxPoint x="-88.53999999999999" y="-247.01000000000005" as="targetPoint" />
          </mxGeometry>
        </mxCell>
        <mxCell id="QqfOzjYN5zHtX_PdudBc-337" value="" style="endArrow=none;html=1;rounded=1;strokeColor=#FF9933;strokeWidth=3;entryX=1;entryY=0;entryDx=0;entryDy=0;exitX=1;exitY=0.5;exitDx=0;exitDy=0;" edge="1" parent="1" source="QqfOzjYN5zHtX_PdudBc-313" target="QqfOzjYN5zHtX_PdudBc-315">
          <mxGeometry width="50" height="50" relative="1" as="geometry">
            <mxPoint x="-32.54" y="-321.00000000000006" as="sourcePoint" />
            <mxPoint x="-122.53999999999999" y="-311.01000000000005" as="targetPoint" />
          </mxGeometry>
        </mxCell>
        <mxCell id="QqfOzjYN5zHtX_PdudBc-338" value="" style="endArrow=none;html=1;rounded=1;strokeColor=#FF9933;strokeWidth=3;entryX=1;entryY=0;entryDx=0;entryDy=0;exitX=0.5;exitY=0;exitDx=0;exitDy=0;" edge="1" parent="1" source="QqfOzjYN5zHtX_PdudBc-310" target="QqfOzjYN5zHtX_PdudBc-315">
          <mxGeometry width="50" height="50" relative="1" as="geometry">
            <mxPoint x="-122.53999999999999" y="-311.01000000000005" as="sourcePoint" />
            <mxPoint x="-88.53999999999999" y="-375.0100000000001" as="targetPoint" />
          </mxGeometry>
        </mxCell>
        <mxCell id="QqfOzjYN5zHtX_PdudBc-408" value="" style="ellipse;whiteSpace=wrap;html=1;aspect=fixed;fillColor=#e1d5e7;strokeColor=#9673a6;" vertex="1" parent="1">
          <mxGeometry x="1900" y="-561.02" width="480" height="480" as="geometry" />
        </mxCell>
        <mxCell id="QqfOzjYN5zHtX_PdudBc-409" value="" style="endArrow=none;html=1;rounded=0;exitX=0;exitY=0.5;exitDx=0;exitDy=0;entryX=1;entryY=0.5;entryDx=0;entryDy=0;" edge="1" parent="1" target="QqfOzjYN5zHtX_PdudBc-408">
          <mxGeometry width="50" height="50" relative="1" as="geometry">
            <mxPoint x="1909.9999999999993" y="-321.02" as="sourcePoint" />
            <mxPoint x="2190" y="-381.02" as="targetPoint" />
          </mxGeometry>
        </mxCell>
        <mxCell id="QqfOzjYN5zHtX_PdudBc-410" value="" style="ellipse;whiteSpace=wrap;html=1;aspect=fixed;opacity=40;fillColor=#e1d5e7;strokeColor=#9673a6;" vertex="1" parent="1">
          <mxGeometry x="1922.5" y="-538.52" width="435" height="435" as="geometry" />
        </mxCell>
        <mxCell id="QqfOzjYN5zHtX_PdudBc-411" value="" style="ellipse;whiteSpace=wrap;html=1;aspect=fixed;opacity=40;fillColor=#e1d5e7;strokeColor=#9673a6;" vertex="1" parent="1">
          <mxGeometry x="1947.81" y="-513.2" width="384.38" height="384.38" as="geometry" />
        </mxCell>
        <mxCell id="QqfOzjYN5zHtX_PdudBc-412" value="" style="ellipse;whiteSpace=wrap;html=1;aspect=fixed;opacity=40;fillColor=#e1d5e7;strokeColor=#9673a6;" vertex="1" parent="1">
          <mxGeometry x="1969.45" y="-491.55999999999995" width="341.1" height="341.1" as="geometry" />
        </mxCell>
        <mxCell id="QqfOzjYN5zHtX_PdudBc-413" value="" style="ellipse;whiteSpace=wrap;html=1;aspect=fixed;opacity=40;fillColor=#d5e8d4;strokeColor=#82b366;" vertex="1" parent="1">
          <mxGeometry x="1989.85" y="-471.15999999999997" width="300.29" height="300.29" as="geometry" />
        </mxCell>
        <mxCell id="QqfOzjYN5zHtX_PdudBc-414" value="" style="ellipse;whiteSpace=wrap;html=1;aspect=fixed;opacity=40;fillColor=#d5e8d4;strokeColor=#82b366;" vertex="1" parent="1">
          <mxGeometry x="2009.95" y="-451.04999999999995" width="260.09" height="260.09" as="geometry" />
        </mxCell>
        <mxCell id="QqfOzjYN5zHtX_PdudBc-415" value="" style="ellipse;whiteSpace=wrap;html=1;aspect=fixed;opacity=40;fillColor=#d5e8d4;strokeColor=#82b366;" vertex="1" parent="1">
          <mxGeometry x="2029.94" y="-431.03" width="220.05" height="220.05" as="geometry" />
        </mxCell>
        <mxCell id="QqfOzjYN5zHtX_PdudBc-416" value="" style="ellipse;whiteSpace=wrap;html=1;aspect=fixed;opacity=40;fillColor=#d5e8d4;strokeColor=#82b366;" vertex="1" parent="1">
          <mxGeometry x="2049.94" y="-411.02" width="180.04" height="180.04" as="geometry" />
        </mxCell>
        <mxCell id="QqfOzjYN5zHtX_PdudBc-417" value="" style="ellipse;whiteSpace=wrap;html=1;aspect=fixed;opacity=40;fillColor=#fff2cc;strokeColor=#d6b656;" vertex="1" parent="1">
          <mxGeometry x="2069.94" y="-391.02" width="140.04" height="140.04" as="geometry" />
        </mxCell>
        <mxCell id="QqfOzjYN5zHtX_PdudBc-418" value="" style="ellipse;whiteSpace=wrap;html=1;aspect=fixed;opacity=40;fillColor=#fff2cc;strokeColor=#d6b656;" vertex="1" parent="1">
          <mxGeometry x="2089.98" y="-371.03999999999996" width="100.04" height="100.04" as="geometry" />
        </mxCell>
        <mxCell id="QqfOzjYN5zHtX_PdudBc-419" value="" style="ellipse;whiteSpace=wrap;html=1;aspect=fixed;opacity=40;fillColor=#fff2cc;strokeColor=#d6b656;" vertex="1" parent="1">
          <mxGeometry x="2109.95" y="-351.03" width="60.02" height="60.02" as="geometry" />
        </mxCell>
        <mxCell id="QqfOzjYN5zHtX_PdudBc-420" value="" style="ellipse;whiteSpace=wrap;html=1;aspect=fixed;opacity=40;" vertex="1" parent="1">
          <mxGeometry x="2124.96" y="-336.03" width="30.01" height="30.01" as="geometry" />
        </mxCell>
        <mxCell id="QqfOzjYN5zHtX_PdudBc-421" value="" style="endArrow=none;html=1;rounded=0;exitX=0;exitY=1;exitDx=0;exitDy=0;entryX=1;entryY=0;entryDx=0;entryDy=0;" edge="1" parent="1" source="QqfOzjYN5zHtX_PdudBc-408" target="QqfOzjYN5zHtX_PdudBc-408">
          <mxGeometry width="50" height="50" relative="1" as="geometry">
            <mxPoint x="2140" y="-251.02" as="sourcePoint" />
            <mxPoint x="2190" y="-301.02" as="targetPoint" />
          </mxGeometry>
        </mxCell>
        <mxCell id="QqfOzjYN5zHtX_PdudBc-422" value="" style="endArrow=none;html=1;rounded=0;exitX=0;exitY=0.5;exitDx=0;exitDy=0;entryX=1;entryY=0.5;entryDx=0;entryDy=0;" edge="1" parent="1" source="QqfOzjYN5zHtX_PdudBc-408">
          <mxGeometry width="50" height="50" relative="1" as="geometry">
            <mxPoint x="1900" y="-321.02" as="sourcePoint" />
            <mxPoint x="2370.000000000001" y="-321.02" as="targetPoint" />
          </mxGeometry>
        </mxCell>
        <mxCell id="QqfOzjYN5zHtX_PdudBc-423" value="" style="endArrow=none;html=1;rounded=0;exitX=0;exitY=0;exitDx=0;exitDy=0;entryX=1;entryY=1;entryDx=0;entryDy=0;" edge="1" parent="1" source="QqfOzjYN5zHtX_PdudBc-408" target="QqfOzjYN5zHtX_PdudBc-408">
          <mxGeometry width="50" height="50" relative="1" as="geometry">
            <mxPoint x="2140" y="-331.02" as="sourcePoint" />
            <mxPoint x="2190" y="-381.02" as="targetPoint" />
          </mxGeometry>
        </mxCell>
        <mxCell id="QqfOzjYN5zHtX_PdudBc-424" value="" style="endArrow=none;html=1;rounded=0;entryX=0.5;entryY=0;entryDx=0;entryDy=0;exitX=0.5;exitY=1;exitDx=0;exitDy=0;" edge="1" parent="1" source="QqfOzjYN5zHtX_PdudBc-408" target="QqfOzjYN5zHtX_PdudBc-408">
          <mxGeometry width="50" height="50" relative="1" as="geometry">
            <mxPoint x="2140" y="-331.02" as="sourcePoint" />
            <mxPoint x="2190" y="-381.02" as="targetPoint" />
          </mxGeometry>
        </mxCell>
        <mxCell id="QqfOzjYN5zHtX_PdudBc-425" value="CSAPP" style="text;html=1;strokeColor=none;fillColor=none;align=center;verticalAlign=middle;whiteSpace=wrap;rounded=0;rotation=0;" vertex="1" parent="1">
          <mxGeometry x="2109.95" y="-591.02" width="60" height="30" as="geometry" />
        </mxCell>
        <mxCell id="QqfOzjYN5zHtX_PdudBc-426" value="Network" style="text;html=1;strokeColor=none;fillColor=none;align=center;verticalAlign=middle;whiteSpace=wrap;rounded=0;rotation=45;" vertex="1" parent="1">
          <mxGeometry x="2290.14" y="-521.56" width="60" height="30" as="geometry" />
        </mxCell>
        <mxCell id="QqfOzjYN5zHtX_PdudBc-427" value="Rust" style="text;html=1;strokeColor=none;fillColor=none;align=center;verticalAlign=middle;whiteSpace=wrap;rounded=0;rotation=0;" vertex="1" parent="1">
          <mxGeometry x="2380" y="-336" width="60" height="30" as="geometry" />
        </mxCell>
        <mxCell id="QqfOzjYN5zHtX_PdudBc-428" value="数据库" style="text;html=1;strokeColor=none;fillColor=none;align=center;verticalAlign=middle;whiteSpace=wrap;rounded=0;rotation=-45;" vertex="1" parent="1">
          <mxGeometry x="1928.5" y="-516.56" width="60" height="30" as="geometry" />
        </mxCell>
        <mxCell id="QqfOzjYN5zHtX_PdudBc-429" value="存储" style="text;html=1;strokeColor=none;fillColor=none;align=center;verticalAlign=middle;whiteSpace=wrap;rounded=0;rotation=45;direction=east;" vertex="1" parent="1">
          <mxGeometry x="1928.85" y="-154.82000000000002" width="60" height="30" as="geometry" />
        </mxCell>
        <mxCell id="QqfOzjYN5zHtX_PdudBc-430" value="Cpp" style="text;html=1;strokeColor=none;fillColor=none;align=center;verticalAlign=middle;whiteSpace=wrap;rounded=0;rotation=0;direction=east;" vertex="1" parent="1">
          <mxGeometry x="2110" y="-81.02000000000001" width="60" height="30" as="geometry" />
        </mxCell>
        <mxCell id="QqfOzjYN5zHtX_PdudBc-431" value="Go" style="text;html=1;strokeColor=none;fillColor=none;align=center;verticalAlign=middle;whiteSpace=wrap;rounded=0;rotation=-45;direction=east;" vertex="1" parent="1">
          <mxGeometry x="2290.14" y="-153.81999999999996" width="60" height="30" as="geometry" />
        </mxCell>
        <mxCell id="QqfOzjYN5zHtX_PdudBc-432" value="分布式" style="text;html=1;strokeColor=none;fillColor=none;align=center;verticalAlign=middle;whiteSpace=wrap;rounded=0;rotation=0;direction=east;" vertex="1" parent="1">
          <mxGeometry x="1840" y="-336.0000000000001" width="60" height="30" as="geometry" />
        </mxCell>
        <mxCell id="QqfOzjYN5zHtX_PdudBc-433" value="" style="endArrow=none;html=1;rounded=1;strokeColor=#330505;strokeWidth=3;entryX=0;entryY=0;entryDx=0;entryDy=0;exitX=0.5;exitY=0;exitDx=0;exitDy=0;" edge="1" parent="1" source="QqfOzjYN5zHtX_PdudBc-415" target="QqfOzjYN5zHtX_PdudBc-413">
          <mxGeometry width="50" height="50" relative="1" as="geometry">
            <mxPoint x="2140" y="-391.02" as="sourcePoint" />
            <mxPoint x="2110" y="-441.02" as="targetPoint" />
          </mxGeometry>
        </mxCell>
        <mxCell id="QqfOzjYN5zHtX_PdudBc-434" value="" style="endArrow=none;html=1;rounded=1;strokeColor=#330505;strokeWidth=3;entryX=0;entryY=0;entryDx=0;entryDy=0;exitX=0;exitY=0.5;exitDx=0;exitDy=0;" edge="1" parent="1" source="QqfOzjYN5zHtX_PdudBc-417" target="QqfOzjYN5zHtX_PdudBc-413">
          <mxGeometry width="50" height="50" relative="1" as="geometry">
            <mxPoint x="2030" y="-321.02" as="sourcePoint" />
            <mxPoint x="2044" y="-417.02" as="targetPoint" />
          </mxGeometry>
        </mxCell>
        <mxCell id="QqfOzjYN5zHtX_PdudBc-435" value="" style="endArrow=none;html=1;rounded=1;strokeColor=#330505;strokeWidth=3;entryX=0;entryY=0.5;entryDx=0;entryDy=0;exitX=0;exitY=1;exitDx=0;exitDy=0;" edge="1" parent="1" source="QqfOzjYN5zHtX_PdudBc-415" target="QqfOzjYN5zHtX_PdudBc-417">
          <mxGeometry width="50" height="50" relative="1" as="geometry">
            <mxPoint x="2040" y="-311.02" as="sourcePoint" />
            <mxPoint x="2044" y="-417.02" as="targetPoint" />
          </mxGeometry>
        </mxCell>
        <mxCell id="QqfOzjYN5zHtX_PdudBc-436" value="" style="endArrow=none;html=1;rounded=1;strokeColor=#330505;strokeWidth=3;entryX=0;entryY=1;entryDx=0;entryDy=0;" edge="1" parent="1" target="QqfOzjYN5zHtX_PdudBc-415">
          <mxGeometry width="50" height="50" relative="1" as="geometry">
            <mxPoint x="2140" y="-251.02" as="sourcePoint" />
            <mxPoint x="2060" y="-240.02" as="targetPoint" />
          </mxGeometry>
        </mxCell>
        <mxCell id="QqfOzjYN5zHtX_PdudBc-437" value="" style="endArrow=none;html=1;rounded=1;strokeColor=#330505;strokeWidth=3;entryX=1;entryY=1;entryDx=0;entryDy=0;" edge="1" parent="1" target="QqfOzjYN5zHtX_PdudBc-412">
          <mxGeometry width="50" height="50" relative="1" as="geometry">
            <mxPoint x="2140" y="-251.02" as="sourcePoint" />
            <mxPoint x="2200" y="-261.02" as="targetPoint" />
          </mxGeometry>
        </mxCell>
        <mxCell id="QqfOzjYN5zHtX_PdudBc-438" value="" style="endArrow=none;html=1;rounded=1;strokeColor=#330505;strokeWidth=3;entryX=1;entryY=0.5;entryDx=0;entryDy=0;exitX=1;exitY=1;exitDx=0;exitDy=0;" edge="1" parent="1" source="QqfOzjYN5zHtX_PdudBc-412" target="QqfOzjYN5zHtX_PdudBc-417">
          <mxGeometry width="50" height="50" relative="1" as="geometry">
            <mxPoint x="2150" y="-241.02" as="sourcePoint" />
            <mxPoint x="2214" y="-247.02" as="targetPoint" />
          </mxGeometry>
        </mxCell>
        <mxCell id="QqfOzjYN5zHtX_PdudBc-439" value="" style="endArrow=none;html=1;rounded=1;strokeColor=#330505;strokeWidth=3;entryX=1;entryY=0;entryDx=0;entryDy=0;exitX=1;exitY=0.5;exitDx=0;exitDy=0;" edge="1" parent="1" source="QqfOzjYN5zHtX_PdudBc-417" target="QqfOzjYN5zHtX_PdudBc-418">
          <mxGeometry width="50" height="50" relative="1" as="geometry">
            <mxPoint x="2214" y="-247.02" as="sourcePoint" />
            <mxPoint x="2180" y="-311.02" as="targetPoint" />
          </mxGeometry>
        </mxCell>
        <mxCell id="QqfOzjYN5zHtX_PdudBc-440" value="" style="endArrow=none;html=1;rounded=1;strokeColor=#330505;strokeWidth=3;entryX=1;entryY=0;entryDx=0;entryDy=0;exitX=0.5;exitY=0;exitDx=0;exitDy=0;" edge="1" parent="1" source="QqfOzjYN5zHtX_PdudBc-415" target="QqfOzjYN5zHtX_PdudBc-418">
          <mxGeometry width="50" height="50" relative="1" as="geometry">
            <mxPoint x="2180" y="-311.02" as="sourcePoint" />
            <mxPoint x="2214" y="-375.02" as="targetPoint" />
          </mxGeometry>
        </mxCell>
        <mxCell id="QqfOzjYN5zHtX_PdudBc-340" value="" style="ellipse;whiteSpace=wrap;html=1;aspect=fixed;fillColor=#fad9d5;strokeColor=#ae4132;" vertex="1" parent="1">
          <mxGeometry x="240" y="-561" width="480" height="480" as="geometry" />
        </mxCell>
        <mxCell id="QqfOzjYN5zHtX_PdudBc-341" value="" style="endArrow=none;html=1;rounded=0;exitX=0;exitY=0.5;exitDx=0;exitDy=0;entryX=1;entryY=0.5;entryDx=0;entryDy=0;" edge="1" parent="1" target="QqfOzjYN5zHtX_PdudBc-340">
          <mxGeometry width="50" height="50" relative="1" as="geometry">
            <mxPoint x="249.99999999999932" y="-321" as="sourcePoint" />
            <mxPoint x="530" y="-381" as="targetPoint" />
          </mxGeometry>
        </mxCell>
        <mxCell id="QqfOzjYN5zHtX_PdudBc-342" value="" style="ellipse;whiteSpace=wrap;html=1;aspect=fixed;opacity=40;fillColor=#fad9d5;strokeColor=#ae4132;" vertex="1" parent="1">
          <mxGeometry x="262.5" y="-538.5" width="435" height="435" as="geometry" />
        </mxCell>
        <mxCell id="QqfOzjYN5zHtX_PdudBc-343" value="" style="ellipse;whiteSpace=wrap;html=1;aspect=fixed;opacity=40;fillColor=#fad9d5;strokeColor=#ae4132;" vertex="1" parent="1">
          <mxGeometry x="287.80999999999995" y="-513.1800000000001" width="384.38" height="384.38" as="geometry" />
        </mxCell>
        <mxCell id="QqfOzjYN5zHtX_PdudBc-344" value="" style="ellipse;whiteSpace=wrap;html=1;aspect=fixed;opacity=40;fillColor=#fad9d5;strokeColor=#ae4132;" vertex="1" parent="1">
          <mxGeometry x="309.45000000000005" y="-491.53999999999996" width="341.1" height="341.1" as="geometry" />
        </mxCell>
        <mxCell id="QqfOzjYN5zHtX_PdudBc-345" value="" style="ellipse;whiteSpace=wrap;html=1;aspect=fixed;opacity=40;fillColor=#76608a;strokeColor=#432D57;fontColor=#ffffff;" vertex="1" parent="1">
          <mxGeometry x="329.85" y="-471.14" width="300.29" height="300.29" as="geometry" />
        </mxCell>
        <mxCell id="QqfOzjYN5zHtX_PdudBc-346" value="" style="ellipse;whiteSpace=wrap;html=1;aspect=fixed;opacity=40;fillColor=#76608a;strokeColor=#432D57;fontColor=#ffffff;" vertex="1" parent="1">
          <mxGeometry x="349.95000000000005" y="-451.03" width="260.09" height="260.09" as="geometry" />
        </mxCell>
        <mxCell id="QqfOzjYN5zHtX_PdudBc-347" value="" style="ellipse;whiteSpace=wrap;html=1;aspect=fixed;opacity=40;fillColor=#76608a;strokeColor=#432D57;fontColor=#ffffff;" vertex="1" parent="1">
          <mxGeometry x="369.94000000000005" y="-431.01" width="220.05" height="220.05" as="geometry" />
        </mxCell>
        <mxCell id="QqfOzjYN5zHtX_PdudBc-348" value="" style="ellipse;whiteSpace=wrap;html=1;aspect=fixed;opacity=40;fillColor=#76608a;strokeColor=#432D57;fontColor=#ffffff;" vertex="1" parent="1">
          <mxGeometry x="389.94000000000005" y="-411" width="180.04" height="180.04" as="geometry" />
        </mxCell>
        <mxCell id="QqfOzjYN5zHtX_PdudBc-349" value="" style="ellipse;whiteSpace=wrap;html=1;aspect=fixed;opacity=40;fillColor=#fad9d5;strokeColor=#ae4132;" vertex="1" parent="1">
          <mxGeometry x="409.94000000000005" y="-391" width="140.04" height="140.04" as="geometry" />
        </mxCell>
        <mxCell id="QqfOzjYN5zHtX_PdudBc-350" value="" style="ellipse;whiteSpace=wrap;html=1;aspect=fixed;opacity=40;fillColor=#fad9d5;strokeColor=#ae4132;" vertex="1" parent="1">
          <mxGeometry x="429.98" y="-371.02" width="100.04" height="100.04" as="geometry" />
        </mxCell>
        <mxCell id="QqfOzjYN5zHtX_PdudBc-351" value="" style="ellipse;whiteSpace=wrap;html=1;aspect=fixed;opacity=40;fillColor=#fad9d5;strokeColor=#ae4132;" vertex="1" parent="1">
          <mxGeometry x="449.95000000000005" y="-351.01" width="60.02" height="60.02" as="geometry" />
        </mxCell>
        <mxCell id="QqfOzjYN5zHtX_PdudBc-352" value="" style="ellipse;whiteSpace=wrap;html=1;aspect=fixed;opacity=40;fillColor=#fad9d5;strokeColor=#ae4132;" vertex="1" parent="1">
          <mxGeometry x="464.96000000000004" y="-336.01" width="30.01" height="30.01" as="geometry" />
        </mxCell>
        <mxCell id="QqfOzjYN5zHtX_PdudBc-353" value="" style="endArrow=none;html=1;rounded=0;exitX=0;exitY=1;exitDx=0;exitDy=0;entryX=1;entryY=0;entryDx=0;entryDy=0;" edge="1" parent="1" source="QqfOzjYN5zHtX_PdudBc-340" target="QqfOzjYN5zHtX_PdudBc-340">
          <mxGeometry width="50" height="50" relative="1" as="geometry">
            <mxPoint x="480" y="-251" as="sourcePoint" />
            <mxPoint x="530" y="-301" as="targetPoint" />
          </mxGeometry>
        </mxCell>
        <mxCell id="QqfOzjYN5zHtX_PdudBc-354" value="" style="endArrow=none;html=1;rounded=0;exitX=0;exitY=0.5;exitDx=0;exitDy=0;entryX=1;entryY=0.5;entryDx=0;entryDy=0;" edge="1" parent="1" source="QqfOzjYN5zHtX_PdudBc-340">
          <mxGeometry width="50" height="50" relative="1" as="geometry">
            <mxPoint x="240" y="-321" as="sourcePoint" />
            <mxPoint x="710.0000000000009" y="-321" as="targetPoint" />
          </mxGeometry>
        </mxCell>
        <mxCell id="QqfOzjYN5zHtX_PdudBc-355" value="" style="endArrow=none;html=1;rounded=0;exitX=0;exitY=0;exitDx=0;exitDy=0;entryX=1;entryY=1;entryDx=0;entryDy=0;" edge="1" parent="1" source="QqfOzjYN5zHtX_PdudBc-340" target="QqfOzjYN5zHtX_PdudBc-340">
          <mxGeometry width="50" height="50" relative="1" as="geometry">
            <mxPoint x="480" y="-331" as="sourcePoint" />
            <mxPoint x="530" y="-381" as="targetPoint" />
          </mxGeometry>
        </mxCell>
        <mxCell id="QqfOzjYN5zHtX_PdudBc-356" value="" style="endArrow=none;html=1;rounded=0;entryX=0.5;entryY=0;entryDx=0;entryDy=0;exitX=0.5;exitY=1;exitDx=0;exitDy=0;" edge="1" parent="1" source="QqfOzjYN5zHtX_PdudBc-340" target="QqfOzjYN5zHtX_PdudBc-340">
          <mxGeometry width="50" height="50" relative="1" as="geometry">
            <mxPoint x="480" y="-331" as="sourcePoint" />
            <mxPoint x="530" y="-381" as="targetPoint" />
          </mxGeometry>
        </mxCell>
        <mxCell id="QqfOzjYN5zHtX_PdudBc-357" value="运动锻炼" style="text;html=1;strokeColor=none;fillColor=none;align=center;verticalAlign=middle;whiteSpace=wrap;rounded=0;rotation=0;" vertex="1" parent="1">
          <mxGeometry x="449.95000000000005" y="-591" width="60" height="30" as="geometry" />
        </mxCell>
        <mxCell id="QqfOzjYN5zHtX_PdudBc-358" value="精神健康" style="text;html=1;strokeColor=none;fillColor=none;align=center;verticalAlign=middle;whiteSpace=wrap;rounded=0;rotation=45;" vertex="1" parent="1">
          <mxGeometry x="630.1399999999999" y="-521.54" width="60" height="30" as="geometry" />
        </mxCell>
        <mxCell id="QqfOzjYN5zHtX_PdudBc-359" value="健康饮食" style="text;html=1;strokeColor=none;fillColor=none;align=center;verticalAlign=middle;whiteSpace=wrap;rounded=0;rotation=0;" vertex="1" parent="1">
          <mxGeometry x="720" y="-335.98" width="60" height="30" as="geometry" />
        </mxCell>
        <mxCell id="QqfOzjYN5zHtX_PdudBc-360" value="心理健康" style="text;html=1;strokeColor=none;fillColor=none;align=center;verticalAlign=middle;whiteSpace=wrap;rounded=0;rotation=-45;" vertex="1" parent="1">
          <mxGeometry x="268.5" y="-516.54" width="60" height="30" as="geometry" />
        </mxCell>
        <mxCell id="QqfOzjYN5zHtX_PdudBc-361" value="睡眠质量" style="text;html=1;strokeColor=none;fillColor=none;align=center;verticalAlign=middle;whiteSpace=wrap;rounded=0;rotation=45;direction=east;" vertex="1" parent="1">
          <mxGeometry x="268.85" y="-154.8" width="60" height="30" as="geometry" />
        </mxCell>
        <mxCell id="QqfOzjYN5zHtX_PdudBc-362" value="应对压力" style="text;html=1;strokeColor=none;fillColor=none;align=center;verticalAlign=middle;whiteSpace=wrap;rounded=0;rotation=0;direction=east;" vertex="1" parent="1">
          <mxGeometry x="450" y="-81" width="60" height="30" as="geometry" />
        </mxCell>
        <mxCell id="QqfOzjYN5zHtX_PdudBc-363" value="体重体检" style="text;html=1;strokeColor=none;fillColor=none;align=center;verticalAlign=middle;whiteSpace=wrap;rounded=0;rotation=-45;direction=east;" vertex="1" parent="1">
          <mxGeometry x="630.1399999999999" y="-153.79999999999995" width="60" height="30" as="geometry" />
        </mxCell>
        <mxCell id="QqfOzjYN5zHtX_PdudBc-364" value="社交互动" style="text;html=1;strokeColor=none;fillColor=none;align=center;verticalAlign=middle;whiteSpace=wrap;rounded=0;rotation=0;direction=east;" vertex="1" parent="1">
          <mxGeometry x="180" y="-335.9800000000001" width="60" height="30" as="geometry" />
        </mxCell>
        <mxCell id="QqfOzjYN5zHtX_PdudBc-365" value="" style="endArrow=none;html=1;rounded=1;strokeColor=#33FF33;strokeWidth=3;entryX=0;entryY=0;entryDx=0;entryDy=0;exitX=0.5;exitY=0;exitDx=0;exitDy=0;" edge="1" parent="1" target="QqfOzjYN5zHtX_PdudBc-347" source="QqfOzjYN5zHtX_PdudBc-350">
          <mxGeometry width="50" height="50" relative="1" as="geometry">
            <mxPoint x="480" y="-391" as="sourcePoint" />
            <mxPoint x="450" y="-441" as="targetPoint" />
          </mxGeometry>
        </mxCell>
        <mxCell id="QqfOzjYN5zHtX_PdudBc-366" value="" style="endArrow=none;html=1;rounded=1;strokeColor=#33FF33;strokeWidth=3;entryX=0;entryY=0;entryDx=0;entryDy=0;" edge="1" parent="1" target="QqfOzjYN5zHtX_PdudBc-347">
          <mxGeometry width="50" height="50" relative="1" as="geometry">
            <mxPoint x="260" y="-320" as="sourcePoint" />
            <mxPoint x="384" y="-417" as="targetPoint" />
          </mxGeometry>
        </mxCell>
        <mxCell id="QqfOzjYN5zHtX_PdudBc-367" value="" style="endArrow=none;html=1;rounded=1;strokeColor=#33FF33;strokeWidth=3;entryX=0;entryY=0.5;entryDx=0;entryDy=0;exitX=0;exitY=1;exitDx=0;exitDy=0;" edge="1" parent="1" source="QqfOzjYN5zHtX_PdudBc-349" target="QqfOzjYN5zHtX_PdudBc-342">
          <mxGeometry width="50" height="50" relative="1" as="geometry">
            <mxPoint x="380" y="-311" as="sourcePoint" />
            <mxPoint x="384" y="-417" as="targetPoint" />
          </mxGeometry>
        </mxCell>
        <mxCell id="QqfOzjYN5zHtX_PdudBc-368" value="" style="endArrow=none;html=1;rounded=1;strokeColor=#33FF33;strokeWidth=3;entryX=0;entryY=1;entryDx=0;entryDy=0;exitX=0.5;exitY=1;exitDx=0;exitDy=0;" edge="1" parent="1" target="QqfOzjYN5zHtX_PdudBc-349" source="QqfOzjYN5zHtX_PdudBc-350">
          <mxGeometry width="50" height="50" relative="1" as="geometry">
            <mxPoint x="480" y="-251" as="sourcePoint" />
            <mxPoint x="380" y="-311" as="targetPoint" />
          </mxGeometry>
        </mxCell>
        <mxCell id="QqfOzjYN5zHtX_PdudBc-369" value="" style="endArrow=none;html=1;rounded=1;strokeColor=#33FF33;strokeWidth=3;entryX=1;entryY=1;entryDx=0;entryDy=0;exitX=0.5;exitY=1;exitDx=0;exitDy=0;" edge="1" parent="1" target="QqfOzjYN5zHtX_PdudBc-352" source="QqfOzjYN5zHtX_PdudBc-350">
          <mxGeometry width="50" height="50" relative="1" as="geometry">
            <mxPoint x="480" y="-251" as="sourcePoint" />
            <mxPoint x="540" y="-261" as="targetPoint" />
          </mxGeometry>
        </mxCell>
        <mxCell id="QqfOzjYN5zHtX_PdudBc-370" value="" style="endArrow=none;html=1;rounded=1;strokeColor=#33FF33;strokeWidth=3;entryX=1;entryY=0.5;entryDx=0;entryDy=0;exitX=1;exitY=1;exitDx=0;exitDy=0;" edge="1" parent="1" source="QqfOzjYN5zHtX_PdudBc-352" target="QqfOzjYN5zHtX_PdudBc-347">
          <mxGeometry width="50" height="50" relative="1" as="geometry">
            <mxPoint x="490" y="-241" as="sourcePoint" />
            <mxPoint x="554" y="-247" as="targetPoint" />
          </mxGeometry>
        </mxCell>
        <mxCell id="QqfOzjYN5zHtX_PdudBc-371" value="" style="endArrow=none;html=1;rounded=1;strokeColor=#33FF33;strokeWidth=3;entryX=1;entryY=0;entryDx=0;entryDy=0;exitX=1;exitY=0.5;exitDx=0;exitDy=0;" edge="1" parent="1" source="QqfOzjYN5zHtX_PdudBc-347" target="QqfOzjYN5zHtX_PdudBc-349">
          <mxGeometry width="50" height="50" relative="1" as="geometry">
            <mxPoint x="554" y="-247" as="sourcePoint" />
            <mxPoint x="520" y="-311" as="targetPoint" />
          </mxGeometry>
        </mxCell>
        <mxCell id="QqfOzjYN5zHtX_PdudBc-372" value="" style="endArrow=none;html=1;rounded=1;strokeColor=#33FF33;strokeWidth=3;entryX=1;entryY=0;entryDx=0;entryDy=0;exitX=0.5;exitY=0;exitDx=0;exitDy=0;" edge="1" parent="1" source="QqfOzjYN5zHtX_PdudBc-350" target="QqfOzjYN5zHtX_PdudBc-349">
          <mxGeometry width="50" height="50" relative="1" as="geometry">
            <mxPoint x="520" y="-311" as="sourcePoint" />
            <mxPoint x="554" y="-375" as="targetPoint" />
          </mxGeometry>
        </mxCell>
        <mxCell id="QqfOzjYN5zHtX_PdudBc-238" value="" style="ellipse;whiteSpace=wrap;html=1;aspect=fixed;fillColor=#f5f5f5;strokeColor=#666666;fontColor=#333333;" vertex="1" parent="1">
          <mxGeometry x="-400" y="720" width="480" height="480" as="geometry" />
        </mxCell>
        <mxCell id="QqfOzjYN5zHtX_PdudBc-239" value="" style="endArrow=none;html=1;rounded=0;exitX=0;exitY=0.5;exitDx=0;exitDy=0;entryX=1;entryY=0.5;entryDx=0;entryDy=0;" edge="1" parent="1" target="QqfOzjYN5zHtX_PdudBc-238">
          <mxGeometry width="50" height="50" relative="1" as="geometry">
            <mxPoint x="-390.0000000000007" y="960" as="sourcePoint" />
            <mxPoint x="-110" y="900" as="targetPoint" />
          </mxGeometry>
        </mxCell>
        <mxCell id="QqfOzjYN5zHtX_PdudBc-240" value="" style="ellipse;whiteSpace=wrap;html=1;aspect=fixed;opacity=40;fillColor=#f5f5f5;strokeColor=#666666;fontColor=#333333;" vertex="1" parent="1">
          <mxGeometry x="-377.5" y="742.5" width="435" height="435" as="geometry" />
        </mxCell>
        <mxCell id="QqfOzjYN5zHtX_PdudBc-241" value="" style="ellipse;whiteSpace=wrap;html=1;aspect=fixed;opacity=40;fillColor=#f5f5f5;strokeColor=#666666;fontColor=#333333;" vertex="1" parent="1">
          <mxGeometry x="-352.19000000000005" y="767.8199999999999" width="384.38" height="384.38" as="geometry" />
        </mxCell>
        <mxCell id="QqfOzjYN5zHtX_PdudBc-242" value="" style="ellipse;whiteSpace=wrap;html=1;aspect=fixed;opacity=40;fillColor=#f5f5f5;strokeColor=#666666;fontColor=#333333;" vertex="1" parent="1">
          <mxGeometry x="-330.54999999999995" y="789.46" width="341.1" height="341.1" as="geometry" />
        </mxCell>
        <mxCell id="QqfOzjYN5zHtX_PdudBc-243" value="" style="ellipse;whiteSpace=wrap;html=1;aspect=fixed;opacity=40;fillColor=#dae8fc;strokeColor=#6c8ebf;" vertex="1" parent="1">
          <mxGeometry x="-310.15" y="809.86" width="300.29" height="300.29" as="geometry" />
        </mxCell>
        <mxCell id="QqfOzjYN5zHtX_PdudBc-244" value="" style="ellipse;whiteSpace=wrap;html=1;aspect=fixed;opacity=40;fillColor=#dae8fc;strokeColor=#6c8ebf;" vertex="1" parent="1">
          <mxGeometry x="-290.04999999999995" y="829.97" width="260.09" height="260.09" as="geometry" />
        </mxCell>
        <mxCell id="QqfOzjYN5zHtX_PdudBc-245" value="" style="ellipse;whiteSpace=wrap;html=1;aspect=fixed;opacity=40;fillColor=#dae8fc;strokeColor=#6c8ebf;" vertex="1" parent="1">
          <mxGeometry x="-270.05999999999995" y="849.99" width="220.05" height="220.05" as="geometry" />
        </mxCell>
        <mxCell id="QqfOzjYN5zHtX_PdudBc-246" value="" style="ellipse;whiteSpace=wrap;html=1;aspect=fixed;opacity=40;fillColor=#dae8fc;strokeColor=#6c8ebf;" vertex="1" parent="1">
          <mxGeometry x="-250.05999999999995" y="870" width="180.04" height="180.04" as="geometry" />
        </mxCell>
        <mxCell id="QqfOzjYN5zHtX_PdudBc-247" value="" style="ellipse;whiteSpace=wrap;html=1;aspect=fixed;opacity=40;fillColor=#ffe6cc;strokeColor=#d79b00;" vertex="1" parent="1">
          <mxGeometry x="-230.05999999999995" y="890" width="140.04" height="140.04" as="geometry" />
        </mxCell>
        <mxCell id="QqfOzjYN5zHtX_PdudBc-248" value="" style="ellipse;whiteSpace=wrap;html=1;aspect=fixed;opacity=40;fillColor=#ffe6cc;strokeColor=#d79b00;" vertex="1" parent="1">
          <mxGeometry x="-210.01999999999998" y="909.98" width="100.04" height="100.04" as="geometry" />
        </mxCell>
        <mxCell id="QqfOzjYN5zHtX_PdudBc-249" value="" style="ellipse;whiteSpace=wrap;html=1;aspect=fixed;opacity=40;fillColor=#ffe6cc;strokeColor=#d79b00;" vertex="1" parent="1">
          <mxGeometry x="-190.04999999999995" y="929.99" width="60.02" height="60.02" as="geometry" />
        </mxCell>
        <mxCell id="QqfOzjYN5zHtX_PdudBc-250" value="" style="ellipse;whiteSpace=wrap;html=1;aspect=fixed;opacity=40;fillColor=#ffe6cc;strokeColor=#d79b00;" vertex="1" parent="1">
          <mxGeometry x="-175.03999999999996" y="944.99" width="30.01" height="30.01" as="geometry" />
        </mxCell>
        <mxCell id="QqfOzjYN5zHtX_PdudBc-251" value="" style="endArrow=none;html=1;rounded=0;exitX=0;exitY=1;exitDx=0;exitDy=0;entryX=1;entryY=0;entryDx=0;entryDy=0;" edge="1" parent="1" source="QqfOzjYN5zHtX_PdudBc-238" target="QqfOzjYN5zHtX_PdudBc-238">
          <mxGeometry width="50" height="50" relative="1" as="geometry">
            <mxPoint x="-160" y="1030" as="sourcePoint" />
            <mxPoint x="-110" y="980" as="targetPoint" />
          </mxGeometry>
        </mxCell>
        <mxCell id="QqfOzjYN5zHtX_PdudBc-252" value="" style="endArrow=none;html=1;rounded=0;exitX=0;exitY=0.5;exitDx=0;exitDy=0;entryX=1;entryY=0.5;entryDx=0;entryDy=0;" edge="1" parent="1" source="QqfOzjYN5zHtX_PdudBc-238">
          <mxGeometry width="50" height="50" relative="1" as="geometry">
            <mxPoint x="-400" y="960" as="sourcePoint" />
            <mxPoint x="70.00000000000091" y="960" as="targetPoint" />
          </mxGeometry>
        </mxCell>
        <mxCell id="QqfOzjYN5zHtX_PdudBc-253" value="" style="endArrow=none;html=1;rounded=0;exitX=0;exitY=0;exitDx=0;exitDy=0;entryX=1;entryY=1;entryDx=0;entryDy=0;" edge="1" parent="1" source="QqfOzjYN5zHtX_PdudBc-238" target="QqfOzjYN5zHtX_PdudBc-238">
          <mxGeometry width="50" height="50" relative="1" as="geometry">
            <mxPoint x="-160" y="950" as="sourcePoint" />
            <mxPoint x="-110" y="900" as="targetPoint" />
          </mxGeometry>
        </mxCell>
        <mxCell id="QqfOzjYN5zHtX_PdudBc-254" value="" style="endArrow=none;html=1;rounded=0;entryX=0.5;entryY=0;entryDx=0;entryDy=0;exitX=0.5;exitY=1;exitDx=0;exitDy=0;" edge="1" parent="1" source="QqfOzjYN5zHtX_PdudBc-238" target="QqfOzjYN5zHtX_PdudBc-238">
          <mxGeometry width="50" height="50" relative="1" as="geometry">
            <mxPoint x="-160" y="950" as="sourcePoint" />
            <mxPoint x="-110" y="900" as="targetPoint" />
          </mxGeometry>
        </mxCell>
        <mxCell id="QqfOzjYN5zHtX_PdudBc-255" value="尊重" style="text;html=1;strokeColor=none;fillColor=none;align=center;verticalAlign=middle;whiteSpace=wrap;rounded=0;rotation=0;" vertex="1" parent="1">
          <mxGeometry x="-190.04999999999995" y="690" width="60" height="30" as="geometry" />
        </mxCell>
        <mxCell id="QqfOzjYN5zHtX_PdudBc-256" value="互惠关系" style="text;html=1;strokeColor=none;fillColor=none;align=center;verticalAlign=middle;whiteSpace=wrap;rounded=0;rotation=45;" vertex="1" parent="1">
          <mxGeometry x="-9.860000000000127" y="759.46" width="60" height="30" as="geometry" />
        </mxCell>
        <mxCell id="QqfOzjYN5zHtX_PdudBc-257" value="冲突解决" style="text;html=1;strokeColor=none;fillColor=none;align=center;verticalAlign=middle;whiteSpace=wrap;rounded=0;rotation=0;" vertex="1" parent="1">
          <mxGeometry x="80" y="945.02" width="60" height="30" as="geometry" />
        </mxCell>
        <mxCell id="QqfOzjYN5zHtX_PdudBc-258" value="边界" style="text;html=1;strokeColor=none;fillColor=none;align=center;verticalAlign=middle;whiteSpace=wrap;rounded=0;rotation=-45;" vertex="1" parent="1">
          <mxGeometry x="-371.5" y="764.46" width="60" height="30" as="geometry" />
        </mxCell>
        <mxCell id="QqfOzjYN5zHtX_PdudBc-259" value="沟通" style="text;html=1;strokeColor=none;fillColor=none;align=center;verticalAlign=middle;whiteSpace=wrap;rounded=0;rotation=45;direction=east;" vertex="1" parent="1">
          <mxGeometry x="-371.15" y="1126.2" width="60" height="30" as="geometry" />
        </mxCell>
        <mxCell id="QqfOzjYN5zHtX_PdudBc-260" value="倾听" style="text;html=1;strokeColor=none;fillColor=none;align=center;verticalAlign=middle;whiteSpace=wrap;rounded=0;rotation=0;direction=east;" vertex="1" parent="1">
          <mxGeometry x="-190" y="1200" width="60" height="30" as="geometry" />
        </mxCell>
        <mxCell id="QqfOzjYN5zHtX_PdudBc-261" value="问题建议" style="text;html=1;strokeColor=none;fillColor=none;align=center;verticalAlign=middle;whiteSpace=wrap;rounded=0;rotation=-45;direction=east;" vertex="1" parent="1">
          <mxGeometry x="-9.860000000000127" y="1127.2" width="60" height="30" as="geometry" />
        </mxCell>
        <mxCell id="QqfOzjYN5zHtX_PdudBc-262" value="支持" style="text;html=1;strokeColor=none;fillColor=none;align=center;verticalAlign=middle;whiteSpace=wrap;rounded=0;rotation=0;direction=east;" vertex="1" parent="1">
          <mxGeometry x="-460" y="945.02" width="60" height="30" as="geometry" />
        </mxCell>
        <mxCell id="QqfOzjYN5zHtX_PdudBc-263" value="" style="endArrow=none;html=1;rounded=1;strokeColor=#00FFFF;strokeWidth=3;entryX=0;entryY=0;entryDx=0;entryDy=0;exitX=0.5;exitY=0;exitDx=0;exitDy=0;" edge="1" parent="1" target="QqfOzjYN5zHtX_PdudBc-243" source="QqfOzjYN5zHtX_PdudBc-240">
          <mxGeometry width="50" height="50" relative="1" as="geometry">
            <mxPoint x="-160" y="890" as="sourcePoint" />
            <mxPoint x="-190" y="840" as="targetPoint" />
          </mxGeometry>
        </mxCell>
        <mxCell id="QqfOzjYN5zHtX_PdudBc-264" value="" style="endArrow=none;html=1;rounded=1;strokeColor=#00FFFF;strokeWidth=3;entryX=0;entryY=0;entryDx=0;entryDy=0;exitX=1;exitY=0.5;exitDx=0;exitDy=0;" edge="1" parent="1" source="QqfOzjYN5zHtX_PdudBc-262" target="QqfOzjYN5zHtX_PdudBc-243">
          <mxGeometry width="50" height="50" relative="1" as="geometry">
            <mxPoint x="-270" y="960" as="sourcePoint" />
            <mxPoint x="-256" y="864" as="targetPoint" />
          </mxGeometry>
        </mxCell>
        <mxCell id="QqfOzjYN5zHtX_PdudBc-265" value="" style="endArrow=none;html=1;rounded=1;strokeColor=#00FFFF;strokeWidth=3;entryX=1;entryY=0.5;entryDx=0;entryDy=0;exitX=0;exitY=1;exitDx=0;exitDy=0;" edge="1" parent="1" source="QqfOzjYN5zHtX_PdudBc-242" target="QqfOzjYN5zHtX_PdudBc-262">
          <mxGeometry width="50" height="50" relative="1" as="geometry">
            <mxPoint x="-260" y="970" as="sourcePoint" />
            <mxPoint x="-256" y="864" as="targetPoint" />
          </mxGeometry>
        </mxCell>
        <mxCell id="QqfOzjYN5zHtX_PdudBc-266" value="" style="endArrow=none;html=1;rounded=1;strokeColor=#00FFFF;strokeWidth=3;entryX=0;entryY=1;entryDx=0;entryDy=0;exitX=0.5;exitY=1;exitDx=0;exitDy=0;" edge="1" parent="1" target="QqfOzjYN5zHtX_PdudBc-242" source="QqfOzjYN5zHtX_PdudBc-245">
          <mxGeometry width="50" height="50" relative="1" as="geometry">
            <mxPoint x="-160" y="1030" as="sourcePoint" />
            <mxPoint x="-260" y="970" as="targetPoint" />
          </mxGeometry>
        </mxCell>
        <mxCell id="QqfOzjYN5zHtX_PdudBc-267" value="" style="endArrow=none;html=1;rounded=1;strokeColor=#00FFFF;strokeWidth=3;entryX=1;entryY=1;entryDx=0;entryDy=0;exitX=0.5;exitY=1;exitDx=0;exitDy=0;" edge="1" parent="1" target="QqfOzjYN5zHtX_PdudBc-243" source="QqfOzjYN5zHtX_PdudBc-245">
          <mxGeometry width="50" height="50" relative="1" as="geometry">
            <mxPoint x="-160" y="1030" as="sourcePoint" />
            <mxPoint x="-100" y="1020" as="targetPoint" />
          </mxGeometry>
        </mxCell>
        <mxCell id="QqfOzjYN5zHtX_PdudBc-268" value="" style="endArrow=none;html=1;rounded=1;strokeColor=#00FFFF;strokeWidth=3;entryX=1;entryY=0.5;entryDx=0;entryDy=0;exitX=1;exitY=1;exitDx=0;exitDy=0;" edge="1" parent="1" source="QqfOzjYN5zHtX_PdudBc-243" target="QqfOzjYN5zHtX_PdudBc-242">
          <mxGeometry width="50" height="50" relative="1" as="geometry">
            <mxPoint x="-150" y="1040" as="sourcePoint" />
            <mxPoint x="-86" y="1034" as="targetPoint" />
          </mxGeometry>
        </mxCell>
        <mxCell id="QqfOzjYN5zHtX_PdudBc-269" value="" style="endArrow=none;html=1;rounded=1;strokeColor=#00FFFF;strokeWidth=3;entryX=1;entryY=0;entryDx=0;entryDy=0;exitX=1;exitY=0.5;exitDx=0;exitDy=0;" edge="1" parent="1" source="QqfOzjYN5zHtX_PdudBc-242" target="QqfOzjYN5zHtX_PdudBc-246">
          <mxGeometry width="50" height="50" relative="1" as="geometry">
            <mxPoint x="-86" y="1034" as="sourcePoint" />
            <mxPoint x="-120" y="970" as="targetPoint" />
          </mxGeometry>
        </mxCell>
        <mxCell id="QqfOzjYN5zHtX_PdudBc-270" value="" style="endArrow=none;html=1;rounded=1;strokeColor=#00FFFF;strokeWidth=3;entryX=1;entryY=0;entryDx=0;entryDy=0;exitX=0.5;exitY=0;exitDx=0;exitDy=0;" edge="1" parent="1" source="QqfOzjYN5zHtX_PdudBc-240" target="QqfOzjYN5zHtX_PdudBc-246">
          <mxGeometry width="50" height="50" relative="1" as="geometry">
            <mxPoint x="-120" y="970" as="sourcePoint" />
            <mxPoint x="-86" y="906" as="targetPoint" />
          </mxGeometry>
        </mxCell>
        <mxCell id="QqfOzjYN5zHtX_PdudBc-133" value="" style="ellipse;whiteSpace=wrap;html=1;aspect=fixed;fillColor=#b1ddf0;strokeColor=#10739e;" vertex="1" parent="1">
          <mxGeometry x="880" y="720" width="480" height="480" as="geometry" />
        </mxCell>
        <mxCell id="QqfOzjYN5zHtX_PdudBc-134" value="" style="endArrow=none;html=1;rounded=0;exitX=0;exitY=0.5;exitDx=0;exitDy=0;entryX=1;entryY=0.5;entryDx=0;entryDy=0;" edge="1" parent="1" target="QqfOzjYN5zHtX_PdudBc-133">
          <mxGeometry width="50" height="50" relative="1" as="geometry">
            <mxPoint x="889.9999999999993" y="960" as="sourcePoint" />
            <mxPoint x="1170" y="900" as="targetPoint" />
          </mxGeometry>
        </mxCell>
        <mxCell id="QqfOzjYN5zHtX_PdudBc-135" value="" style="ellipse;whiteSpace=wrap;html=1;aspect=fixed;opacity=40;fillColor=#b1ddf0;strokeColor=#10739e;" vertex="1" parent="1">
          <mxGeometry x="902.5" y="742.5" width="435" height="435" as="geometry" />
        </mxCell>
        <mxCell id="QqfOzjYN5zHtX_PdudBc-136" value="" style="ellipse;whiteSpace=wrap;html=1;aspect=fixed;opacity=40;fillColor=#b1ddf0;strokeColor=#10739e;" vertex="1" parent="1">
          <mxGeometry x="927.81" y="767.8199999999999" width="384.38" height="384.38" as="geometry" />
        </mxCell>
        <mxCell id="QqfOzjYN5zHtX_PdudBc-137" value="" style="ellipse;whiteSpace=wrap;html=1;aspect=fixed;opacity=40;fillColor=#b1ddf0;strokeColor=#10739e;" vertex="1" parent="1">
          <mxGeometry x="949.45" y="789.46" width="341.1" height="341.1" as="geometry" />
        </mxCell>
        <mxCell id="QqfOzjYN5zHtX_PdudBc-138" value="" style="ellipse;whiteSpace=wrap;html=1;aspect=fixed;opacity=40;fillColor=#d0cee2;strokeColor=#56517e;" vertex="1" parent="1">
          <mxGeometry x="969.85" y="809.86" width="300.29" height="300.29" as="geometry" />
        </mxCell>
        <mxCell id="QqfOzjYN5zHtX_PdudBc-139" value="" style="ellipse;whiteSpace=wrap;html=1;aspect=fixed;opacity=40;fillColor=#d0cee2;strokeColor=#56517e;" vertex="1" parent="1">
          <mxGeometry x="989.95" y="829.97" width="260.09" height="260.09" as="geometry" />
        </mxCell>
        <mxCell id="QqfOzjYN5zHtX_PdudBc-140" value="" style="ellipse;whiteSpace=wrap;html=1;aspect=fixed;opacity=40;fillColor=#d0cee2;strokeColor=#56517e;" vertex="1" parent="1">
          <mxGeometry x="1009.94" y="849.99" width="220.05" height="220.05" as="geometry" />
        </mxCell>
        <mxCell id="QqfOzjYN5zHtX_PdudBc-141" value="" style="ellipse;whiteSpace=wrap;html=1;aspect=fixed;opacity=40;fillColor=#d5e8d4;strokeColor=#82b366;" vertex="1" parent="1">
          <mxGeometry x="1029.94" y="870" width="180.04" height="180.04" as="geometry" />
        </mxCell>
        <mxCell id="QqfOzjYN5zHtX_PdudBc-142" value="" style="ellipse;whiteSpace=wrap;html=1;aspect=fixed;opacity=40;fillColor=#d5e8d4;strokeColor=#82b366;" vertex="1" parent="1">
          <mxGeometry x="1049.94" y="890" width="140.04" height="140.04" as="geometry" />
        </mxCell>
        <mxCell id="QqfOzjYN5zHtX_PdudBc-143" value="" style="ellipse;whiteSpace=wrap;html=1;aspect=fixed;opacity=40;fillColor=#d5e8d4;strokeColor=#82b366;" vertex="1" parent="1">
          <mxGeometry x="1069.98" y="909.98" width="100.04" height="100.04" as="geometry" />
        </mxCell>
        <mxCell id="QqfOzjYN5zHtX_PdudBc-144" value="" style="ellipse;whiteSpace=wrap;html=1;aspect=fixed;opacity=40;fillColor=#d5e8d4;strokeColor=#82b366;" vertex="1" parent="1">
          <mxGeometry x="1089.95" y="929.99" width="60.02" height="60.02" as="geometry" />
        </mxCell>
        <mxCell id="QqfOzjYN5zHtX_PdudBc-145" value="" style="ellipse;whiteSpace=wrap;html=1;aspect=fixed;opacity=40;fillColor=#d5e8d4;strokeColor=#82b366;" vertex="1" parent="1">
          <mxGeometry x="1104.96" y="944.99" width="30.01" height="30.01" as="geometry" />
        </mxCell>
        <mxCell id="QqfOzjYN5zHtX_PdudBc-146" value="" style="endArrow=none;html=1;rounded=0;exitX=0;exitY=1;exitDx=0;exitDy=0;entryX=1;entryY=0;entryDx=0;entryDy=0;" edge="1" parent="1" source="QqfOzjYN5zHtX_PdudBc-133" target="QqfOzjYN5zHtX_PdudBc-133">
          <mxGeometry width="50" height="50" relative="1" as="geometry">
            <mxPoint x="1120" y="1030" as="sourcePoint" />
            <mxPoint x="1170" y="980" as="targetPoint" />
          </mxGeometry>
        </mxCell>
        <mxCell id="QqfOzjYN5zHtX_PdudBc-147" value="" style="endArrow=none;html=1;rounded=0;exitX=0;exitY=0.5;exitDx=0;exitDy=0;entryX=1;entryY=0.5;entryDx=0;entryDy=0;" edge="1" parent="1" source="QqfOzjYN5zHtX_PdudBc-133">
          <mxGeometry width="50" height="50" relative="1" as="geometry">
            <mxPoint x="880" y="960" as="sourcePoint" />
            <mxPoint x="1350.000000000001" y="960" as="targetPoint" />
          </mxGeometry>
        </mxCell>
        <mxCell id="QqfOzjYN5zHtX_PdudBc-148" value="" style="endArrow=none;html=1;rounded=0;exitX=0;exitY=0;exitDx=0;exitDy=0;entryX=1;entryY=1;entryDx=0;entryDy=0;" edge="1" parent="1" source="QqfOzjYN5zHtX_PdudBc-133" target="QqfOzjYN5zHtX_PdudBc-133">
          <mxGeometry width="50" height="50" relative="1" as="geometry">
            <mxPoint x="1120" y="950" as="sourcePoint" />
            <mxPoint x="1170" y="900" as="targetPoint" />
          </mxGeometry>
        </mxCell>
        <mxCell id="QqfOzjYN5zHtX_PdudBc-149" value="" style="endArrow=none;html=1;rounded=0;entryX=0.5;entryY=0;entryDx=0;entryDy=0;exitX=0.5;exitY=1;exitDx=0;exitDy=0;" edge="1" parent="1" source="QqfOzjYN5zHtX_PdudBc-133" target="QqfOzjYN5zHtX_PdudBc-133">
          <mxGeometry width="50" height="50" relative="1" as="geometry">
            <mxPoint x="1120" y="950" as="sourcePoint" />
            <mxPoint x="1170" y="900" as="targetPoint" />
          </mxGeometry>
        </mxCell>
        <mxCell id="QqfOzjYN5zHtX_PdudBc-150" value="读书" style="text;html=1;strokeColor=none;fillColor=none;align=center;verticalAlign=middle;whiteSpace=wrap;rounded=0;rotation=0;" vertex="1" parent="1">
          <mxGeometry x="1089.95" y="690" width="60" height="30" as="geometry" />
        </mxCell>
        <mxCell id="QqfOzjYN5zHtX_PdudBc-151" value="游戏" style="text;html=1;strokeColor=none;fillColor=none;align=center;verticalAlign=middle;whiteSpace=wrap;rounded=0;rotation=45;" vertex="1" parent="1">
          <mxGeometry x="1270.1399999999999" y="759.46" width="60" height="30" as="geometry" />
        </mxCell>
        <mxCell id="QqfOzjYN5zHtX_PdudBc-152" value="运动" style="text;html=1;strokeColor=none;fillColor=none;align=center;verticalAlign=middle;whiteSpace=wrap;rounded=0;rotation=0;" vertex="1" parent="1">
          <mxGeometry x="1360" y="945.02" width="60" height="30" as="geometry" />
        </mxCell>
        <mxCell id="QqfOzjYN5zHtX_PdudBc-153" value="电影" style="text;html=1;strokeColor=none;fillColor=none;align=center;verticalAlign=middle;whiteSpace=wrap;rounded=0;rotation=-45;" vertex="1" parent="1">
          <mxGeometry x="908.5" y="764.46" width="60" height="30" as="geometry" />
        </mxCell>
        <mxCell id="QqfOzjYN5zHtX_PdudBc-154" value="摄像" style="text;html=1;strokeColor=none;fillColor=none;align=center;verticalAlign=middle;whiteSpace=wrap;rounded=0;rotation=45;direction=east;" vertex="1" parent="1">
          <mxGeometry x="908.85" y="1126.2" width="60" height="30" as="geometry" />
        </mxCell>
        <mxCell id="QqfOzjYN5zHtX_PdudBc-155" value="社交" style="text;html=1;strokeColor=none;fillColor=none;align=center;verticalAlign=middle;whiteSpace=wrap;rounded=0;rotation=0;direction=east;" vertex="1" parent="1">
          <mxGeometry x="1090" y="1200" width="60" height="30" as="geometry" />
        </mxCell>
        <mxCell id="QqfOzjYN5zHtX_PdudBc-156" value="烹饪" style="text;html=1;strokeColor=none;fillColor=none;align=center;verticalAlign=middle;whiteSpace=wrap;rounded=0;rotation=-45;direction=east;" vertex="1" parent="1">
          <mxGeometry x="1270.1399999999999" y="1127.2" width="60" height="30" as="geometry" />
        </mxCell>
        <mxCell id="QqfOzjYN5zHtX_PdudBc-157" value="旅行" style="text;html=1;strokeColor=none;fillColor=none;align=center;verticalAlign=middle;whiteSpace=wrap;rounded=0;rotation=0;direction=east;" vertex="1" parent="1">
          <mxGeometry x="820" y="945.02" width="60" height="30" as="geometry" />
        </mxCell>
        <mxCell id="QqfOzjYN5zHtX_PdudBc-158" value="" style="endArrow=none;html=1;rounded=1;strokeColor=#B266FF;strokeWidth=3;entryX=0;entryY=0;entryDx=0;entryDy=0;" edge="1" parent="1" target="QqfOzjYN5zHtX_PdudBc-138">
          <mxGeometry width="50" height="50" relative="1" as="geometry">
            <mxPoint x="1120" y="890" as="sourcePoint" />
            <mxPoint x="1090" y="840" as="targetPoint" />
          </mxGeometry>
        </mxCell>
        <mxCell id="QqfOzjYN5zHtX_PdudBc-159" value="" style="endArrow=none;html=1;rounded=1;strokeColor=#B266FF;strokeWidth=3;entryX=0;entryY=0;entryDx=0;entryDy=0;exitX=0;exitY=0.5;exitDx=0;exitDy=0;" edge="1" parent="1" source="QqfOzjYN5zHtX_PdudBc-136" target="QqfOzjYN5zHtX_PdudBc-138">
          <mxGeometry width="50" height="50" relative="1" as="geometry">
            <mxPoint x="1010" y="960" as="sourcePoint" />
            <mxPoint x="1024" y="864" as="targetPoint" />
          </mxGeometry>
        </mxCell>
        <mxCell id="QqfOzjYN5zHtX_PdudBc-160" value="" style="endArrow=none;html=1;rounded=1;strokeColor=#B266FF;strokeWidth=3;entryX=0;entryY=0.5;entryDx=0;entryDy=0;exitX=0;exitY=1;exitDx=0;exitDy=0;" edge="1" parent="1" source="QqfOzjYN5zHtX_PdudBc-141" target="QqfOzjYN5zHtX_PdudBc-136">
          <mxGeometry width="50" height="50" relative="1" as="geometry">
            <mxPoint x="1020" y="970" as="sourcePoint" />
            <mxPoint x="1024" y="864" as="targetPoint" />
          </mxGeometry>
        </mxCell>
        <mxCell id="QqfOzjYN5zHtX_PdudBc-161" value="" style="endArrow=none;html=1;rounded=1;strokeColor=#B266FF;strokeWidth=3;entryX=0;entryY=1;entryDx=0;entryDy=0;exitX=0.5;exitY=1;exitDx=0;exitDy=0;" edge="1" parent="1" target="QqfOzjYN5zHtX_PdudBc-141" source="QqfOzjYN5zHtX_PdudBc-135">
          <mxGeometry width="50" height="50" relative="1" as="geometry">
            <mxPoint x="1120" y="1050" as="sourcePoint" />
            <mxPoint x="1020" y="970" as="targetPoint" />
          </mxGeometry>
        </mxCell>
        <mxCell id="QqfOzjYN5zHtX_PdudBc-162" value="" style="endArrow=none;html=1;rounded=1;strokeColor=#B266FF;strokeWidth=3;entryX=1;entryY=1;entryDx=0;entryDy=0;exitX=0.5;exitY=1;exitDx=0;exitDy=0;" edge="1" parent="1" target="QqfOzjYN5zHtX_PdudBc-143" source="QqfOzjYN5zHtX_PdudBc-135">
          <mxGeometry width="50" height="50" relative="1" as="geometry">
            <mxPoint x="1120" y="1030" as="sourcePoint" />
            <mxPoint x="1180" y="1020" as="targetPoint" />
          </mxGeometry>
        </mxCell>
        <mxCell id="QqfOzjYN5zHtX_PdudBc-163" value="" style="endArrow=none;html=1;rounded=1;strokeColor=#B266FF;strokeWidth=3;entryX=1;entryY=0.5;entryDx=0;entryDy=0;exitX=1;exitY=1;exitDx=0;exitDy=0;" edge="1" parent="1" source="QqfOzjYN5zHtX_PdudBc-143" target="QqfOzjYN5zHtX_PdudBc-144">
          <mxGeometry width="50" height="50" relative="1" as="geometry">
            <mxPoint x="1130" y="1040" as="sourcePoint" />
            <mxPoint x="1194" y="1034" as="targetPoint" />
          </mxGeometry>
        </mxCell>
        <mxCell id="QqfOzjYN5zHtX_PdudBc-164" value="" style="endArrow=none;html=1;rounded=1;strokeColor=#B266FF;strokeWidth=3;entryX=1;entryY=0;entryDx=0;entryDy=0;exitX=1;exitY=0.5;exitDx=0;exitDy=0;" edge="1" parent="1" source="QqfOzjYN5zHtX_PdudBc-144" target="QqfOzjYN5zHtX_PdudBc-139">
          <mxGeometry width="50" height="50" relative="1" as="geometry">
            <mxPoint x="1194" y="1034" as="sourcePoint" />
            <mxPoint x="1160" y="970" as="targetPoint" />
          </mxGeometry>
        </mxCell>
        <mxCell id="QqfOzjYN5zHtX_PdudBc-165" value="" style="endArrow=none;html=1;rounded=1;strokeColor=#B266FF;strokeWidth=3;entryX=1;entryY=0;entryDx=0;entryDy=0;exitX=0.5;exitY=0;exitDx=0;exitDy=0;" edge="1" parent="1" source="QqfOzjYN5zHtX_PdudBc-142" target="QqfOzjYN5zHtX_PdudBc-139">
          <mxGeometry width="50" height="50" relative="1" as="geometry">
            <mxPoint x="1160" y="970" as="sourcePoint" />
            <mxPoint x="1194" y="906" as="targetPoint" />
          </mxGeometry>
        </mxCell>
        <mxCell id="QqfOzjYN5zHtX_PdudBc-374" value="" style="ellipse;whiteSpace=wrap;html=1;aspect=fixed;fillColor=#fad7ac;strokeColor=#b46504;" vertex="1" parent="1">
          <mxGeometry x="240" y="720" width="480" height="480" as="geometry" />
        </mxCell>
        <mxCell id="QqfOzjYN5zHtX_PdudBc-375" value="" style="endArrow=none;html=1;rounded=0;exitX=0;exitY=0.5;exitDx=0;exitDy=0;entryX=1;entryY=0.5;entryDx=0;entryDy=0;" edge="1" parent="1" target="QqfOzjYN5zHtX_PdudBc-374">
          <mxGeometry width="50" height="50" relative="1" as="geometry">
            <mxPoint x="249.99999999999932" y="960" as="sourcePoint" />
            <mxPoint x="530" y="900" as="targetPoint" />
          </mxGeometry>
        </mxCell>
        <mxCell id="QqfOzjYN5zHtX_PdudBc-376" value="" style="ellipse;whiteSpace=wrap;html=1;aspect=fixed;opacity=40;fillColor=#fad7ac;strokeColor=#b46504;" vertex="1" parent="1">
          <mxGeometry x="262.5" y="742.5" width="435" height="435" as="geometry" />
        </mxCell>
        <mxCell id="QqfOzjYN5zHtX_PdudBc-377" value="" style="ellipse;whiteSpace=wrap;html=1;aspect=fixed;opacity=40;fillColor=#fad7ac;strokeColor=#b46504;" vertex="1" parent="1">
          <mxGeometry x="287.80999999999995" y="767.8199999999999" width="384.38" height="384.38" as="geometry" />
        </mxCell>
        <mxCell id="QqfOzjYN5zHtX_PdudBc-378" value="" style="ellipse;whiteSpace=wrap;html=1;aspect=fixed;opacity=40;fillColor=#fad7ac;strokeColor=#b46504;" vertex="1" parent="1">
          <mxGeometry x="309.45000000000005" y="789.46" width="341.1" height="341.1" as="geometry" />
        </mxCell>
        <mxCell id="QqfOzjYN5zHtX_PdudBc-379" value="" style="ellipse;whiteSpace=wrap;html=1;aspect=fixed;opacity=40;fillColor=#b0e3e6;strokeColor=#0e8088;" vertex="1" parent="1">
          <mxGeometry x="329.85" y="809.86" width="300.29" height="300.29" as="geometry" />
        </mxCell>
        <mxCell id="QqfOzjYN5zHtX_PdudBc-380" value="" style="ellipse;whiteSpace=wrap;html=1;aspect=fixed;opacity=40;fillColor=#b0e3e6;strokeColor=#0e8088;" vertex="1" parent="1">
          <mxGeometry x="349.95000000000005" y="829.97" width="260.09" height="260.09" as="geometry" />
        </mxCell>
        <mxCell id="QqfOzjYN5zHtX_PdudBc-381" value="" style="ellipse;whiteSpace=wrap;html=1;aspect=fixed;opacity=40;fillColor=#b0e3e6;strokeColor=#0e8088;" vertex="1" parent="1">
          <mxGeometry x="369.94000000000005" y="849.99" width="220.05" height="220.05" as="geometry" />
        </mxCell>
        <mxCell id="QqfOzjYN5zHtX_PdudBc-382" value="" style="ellipse;whiteSpace=wrap;html=1;aspect=fixed;opacity=40;fillColor=#b0e3e6;strokeColor=#0e8088;" vertex="1" parent="1">
          <mxGeometry x="389.94000000000005" y="870" width="180.04" height="180.04" as="geometry" />
        </mxCell>
        <mxCell id="QqfOzjYN5zHtX_PdudBc-383" value="" style="ellipse;whiteSpace=wrap;html=1;aspect=fixed;opacity=40;fillColor=#dae8fc;strokeColor=#6c8ebf;" vertex="1" parent="1">
          <mxGeometry x="409.94000000000005" y="890" width="140.04" height="140.04" as="geometry" />
        </mxCell>
        <mxCell id="QqfOzjYN5zHtX_PdudBc-384" value="" style="ellipse;whiteSpace=wrap;html=1;aspect=fixed;opacity=40;fillColor=#dae8fc;strokeColor=#6c8ebf;" vertex="1" parent="1">
          <mxGeometry x="429.98" y="909.98" width="100.04" height="100.04" as="geometry" />
        </mxCell>
        <mxCell id="QqfOzjYN5zHtX_PdudBc-385" value="" style="ellipse;whiteSpace=wrap;html=1;aspect=fixed;opacity=40;fillColor=#dae8fc;strokeColor=#6c8ebf;" vertex="1" parent="1">
          <mxGeometry x="449.95000000000005" y="929.99" width="60.02" height="60.02" as="geometry" />
        </mxCell>
        <mxCell id="QqfOzjYN5zHtX_PdudBc-386" value="" style="ellipse;whiteSpace=wrap;html=1;aspect=fixed;opacity=40;fillColor=#f5f5f5;fontColor=#333333;strokeColor=#666666;" vertex="1" parent="1">
          <mxGeometry x="464.96000000000004" y="944.99" width="30.01" height="30.01" as="geometry" />
        </mxCell>
        <mxCell id="QqfOzjYN5zHtX_PdudBc-387" value="" style="endArrow=none;html=1;rounded=0;exitX=0;exitY=1;exitDx=0;exitDy=0;entryX=1;entryY=0;entryDx=0;entryDy=0;" edge="1" parent="1" source="QqfOzjYN5zHtX_PdudBc-374" target="QqfOzjYN5zHtX_PdudBc-374">
          <mxGeometry width="50" height="50" relative="1" as="geometry">
            <mxPoint x="480" y="1030" as="sourcePoint" />
            <mxPoint x="530" y="980" as="targetPoint" />
          </mxGeometry>
        </mxCell>
        <mxCell id="QqfOzjYN5zHtX_PdudBc-388" value="" style="endArrow=none;html=1;rounded=0;exitX=0;exitY=0.5;exitDx=0;exitDy=0;entryX=1;entryY=0.5;entryDx=0;entryDy=0;" edge="1" parent="1" source="QqfOzjYN5zHtX_PdudBc-374">
          <mxGeometry width="50" height="50" relative="1" as="geometry">
            <mxPoint x="240" y="960" as="sourcePoint" />
            <mxPoint x="710.0000000000009" y="960" as="targetPoint" />
          </mxGeometry>
        </mxCell>
        <mxCell id="QqfOzjYN5zHtX_PdudBc-389" value="" style="endArrow=none;html=1;rounded=0;exitX=0;exitY=0;exitDx=0;exitDy=0;entryX=1;entryY=1;entryDx=0;entryDy=0;" edge="1" parent="1" source="QqfOzjYN5zHtX_PdudBc-374" target="QqfOzjYN5zHtX_PdudBc-374">
          <mxGeometry width="50" height="50" relative="1" as="geometry">
            <mxPoint x="480" y="950" as="sourcePoint" />
            <mxPoint x="530" y="900" as="targetPoint" />
          </mxGeometry>
        </mxCell>
        <mxCell id="QqfOzjYN5zHtX_PdudBc-390" value="" style="endArrow=none;html=1;rounded=0;entryX=0.5;entryY=0;entryDx=0;entryDy=0;exitX=0.5;exitY=1;exitDx=0;exitDy=0;" edge="1" parent="1" source="QqfOzjYN5zHtX_PdudBc-374" target="QqfOzjYN5zHtX_PdudBc-374">
          <mxGeometry width="50" height="50" relative="1" as="geometry">
            <mxPoint x="480" y="950" as="sourcePoint" />
            <mxPoint x="530" y="900" as="targetPoint" />
          </mxGeometry>
        </mxCell>
        <mxCell id="QqfOzjYN5zHtX_PdudBc-391" value="职业规划" style="text;html=1;strokeColor=none;fillColor=none;align=center;verticalAlign=middle;whiteSpace=wrap;rounded=0;rotation=0;" vertex="1" parent="1">
          <mxGeometry x="449.95000000000005" y="690" width="60" height="30" as="geometry" />
        </mxCell>
        <mxCell id="QqfOzjYN5zHtX_PdudBc-392" value="创造力" style="text;html=1;strokeColor=none;fillColor=none;align=center;verticalAlign=middle;whiteSpace=wrap;rounded=0;rotation=45;" vertex="1" parent="1">
          <mxGeometry x="630.1399999999999" y="759.46" width="60" height="30" as="geometry" />
        </mxCell>
        <mxCell id="QqfOzjYN5zHtX_PdudBc-393" value="贡献能力" style="text;html=1;strokeColor=none;fillColor=none;align=center;verticalAlign=middle;whiteSpace=wrap;rounded=0;rotation=0;" vertex="1" parent="1">
          <mxGeometry x="720" y="945.02" width="60" height="30" as="geometry" />
        </mxCell>
        <mxCell id="QqfOzjYN5zHtX_PdudBc-394" value="健康福祉" style="text;html=1;strokeColor=none;fillColor=none;align=center;verticalAlign=middle;whiteSpace=wrap;rounded=0;rotation=-45;" vertex="1" parent="1">
          <mxGeometry x="268.5" y="764.46" width="60" height="30" as="geometry" />
        </mxCell>
        <mxCell id="QqfOzjYN5zHtX_PdudBc-395" value="学习成长" style="text;html=1;strokeColor=none;fillColor=none;align=center;verticalAlign=middle;whiteSpace=wrap;rounded=0;rotation=45;direction=east;" vertex="1" parent="1">
          <mxGeometry x="268.85" y="1126.2" width="60" height="30" as="geometry" />
        </mxCell>
        <mxCell id="QqfOzjYN5zHtX_PdudBc-396" value="时间管理" style="text;html=1;strokeColor=none;fillColor=none;align=center;verticalAlign=middle;whiteSpace=wrap;rounded=0;rotation=0;direction=east;" vertex="1" parent="1">
          <mxGeometry x="450" y="1200" width="60" height="30" as="geometry" />
        </mxCell>
        <mxCell id="QqfOzjYN5zHtX_PdudBc-397" value="平衡能力" style="text;html=1;strokeColor=none;fillColor=none;align=center;verticalAlign=middle;whiteSpace=wrap;rounded=0;rotation=-45;direction=east;" vertex="1" parent="1">
          <mxGeometry x="630.1399999999999" y="1127.2" width="60" height="30" as="geometry" />
        </mxCell>
        <mxCell id="QqfOzjYN5zHtX_PdudBc-398" value="家庭人际" style="text;html=1;strokeColor=none;fillColor=none;align=center;verticalAlign=middle;whiteSpace=wrap;rounded=0;rotation=0;direction=east;" vertex="1" parent="1">
          <mxGeometry x="180" y="945.02" width="60" height="30" as="geometry" />
        </mxCell>
        <mxCell id="QqfOzjYN5zHtX_PdudBc-399" value="" style="endArrow=none;html=1;rounded=1;strokeColor=#FF66B3;strokeWidth=3;entryX=0;entryY=0;entryDx=0;entryDy=0;" edge="1" parent="1" target="QqfOzjYN5zHtX_PdudBc-382">
          <mxGeometry width="50" height="50" relative="1" as="geometry">
            <mxPoint x="480" y="890" as="sourcePoint" />
            <mxPoint x="450" y="840" as="targetPoint" />
          </mxGeometry>
        </mxCell>
        <mxCell id="QqfOzjYN5zHtX_PdudBc-400" value="" style="endArrow=none;html=1;rounded=1;strokeColor=#FF66B3;strokeWidth=3;entryX=0;entryY=0;entryDx=0;entryDy=0;exitX=0;exitY=0.5;exitDx=0;exitDy=0;" edge="1" parent="1" source="QqfOzjYN5zHtX_PdudBc-379" target="QqfOzjYN5zHtX_PdudBc-382">
          <mxGeometry width="50" height="50" relative="1" as="geometry">
            <mxPoint x="370" y="960" as="sourcePoint" />
            <mxPoint x="384" y="864" as="targetPoint" />
          </mxGeometry>
        </mxCell>
        <mxCell id="QqfOzjYN5zHtX_PdudBc-401" value="" style="endArrow=none;html=1;rounded=1;strokeColor=#FF66B3;strokeWidth=3;entryX=0;entryY=0.5;entryDx=0;entryDy=0;exitX=0;exitY=1;exitDx=0;exitDy=0;" edge="1" parent="1" source="QqfOzjYN5zHtX_PdudBc-381" target="QqfOzjYN5zHtX_PdudBc-379">
          <mxGeometry width="50" height="50" relative="1" as="geometry">
            <mxPoint x="380" y="970" as="sourcePoint" />
            <mxPoint x="384" y="864" as="targetPoint" />
          </mxGeometry>
        </mxCell>
        <mxCell id="QqfOzjYN5zHtX_PdudBc-402" value="" style="endArrow=none;html=1;rounded=1;strokeColor=#FF66B3;strokeWidth=3;entryX=0;entryY=1;entryDx=0;entryDy=0;exitX=0.5;exitY=1;exitDx=0;exitDy=0;" edge="1" parent="1" target="QqfOzjYN5zHtX_PdudBc-381" source="QqfOzjYN5zHtX_PdudBc-384">
          <mxGeometry width="50" height="50" relative="1" as="geometry">
            <mxPoint x="480" y="1030" as="sourcePoint" />
            <mxPoint x="380" y="970" as="targetPoint" />
          </mxGeometry>
        </mxCell>
        <mxCell id="QqfOzjYN5zHtX_PdudBc-403" value="" style="endArrow=none;html=1;rounded=1;strokeColor=#FF66B3;strokeWidth=3;entryX=1;entryY=1;entryDx=0;entryDy=0;exitX=0.5;exitY=1;exitDx=0;exitDy=0;" edge="1" parent="1" target="QqfOzjYN5zHtX_PdudBc-382" source="QqfOzjYN5zHtX_PdudBc-384">
          <mxGeometry width="50" height="50" relative="1" as="geometry">
            <mxPoint x="480" y="1030" as="sourcePoint" />
            <mxPoint x="540" y="1020" as="targetPoint" />
          </mxGeometry>
        </mxCell>
        <mxCell id="QqfOzjYN5zHtX_PdudBc-404" value="" style="endArrow=none;html=1;rounded=1;strokeColor=#FF66B3;strokeWidth=3;entryX=1;entryY=0.5;entryDx=0;entryDy=0;exitX=1;exitY=1;exitDx=0;exitDy=0;" edge="1" parent="1" source="QqfOzjYN5zHtX_PdudBc-382" target="QqfOzjYN5zHtX_PdudBc-385">
          <mxGeometry width="50" height="50" relative="1" as="geometry">
            <mxPoint x="490" y="1040" as="sourcePoint" />
            <mxPoint x="554" y="1034" as="targetPoint" />
          </mxGeometry>
        </mxCell>
        <mxCell id="QqfOzjYN5zHtX_PdudBc-405" value="" style="endArrow=none;html=1;rounded=1;strokeColor=#FF66B3;strokeWidth=3;entryX=1;entryY=0;entryDx=0;entryDy=0;exitX=1;exitY=0.5;exitDx=0;exitDy=0;" edge="1" parent="1" source="QqfOzjYN5zHtX_PdudBc-385" target="QqfOzjYN5zHtX_PdudBc-382">
          <mxGeometry width="50" height="50" relative="1" as="geometry">
            <mxPoint x="554" y="1034" as="sourcePoint" />
            <mxPoint x="520" y="970" as="targetPoint" />
          </mxGeometry>
        </mxCell>
        <mxCell id="QqfOzjYN5zHtX_PdudBc-406" value="" style="endArrow=none;html=1;rounded=1;strokeColor=#FF66B3;strokeWidth=3;entryX=1;entryY=0;entryDx=0;entryDy=0;exitX=0.5;exitY=0;exitDx=0;exitDy=0;" edge="1" parent="1" source="QqfOzjYN5zHtX_PdudBc-383" target="QqfOzjYN5zHtX_PdudBc-382">
          <mxGeometry width="50" height="50" relative="1" as="geometry">
            <mxPoint x="520" y="970" as="sourcePoint" />
            <mxPoint x="554" y="906" as="targetPoint" />
          </mxGeometry>
        </mxCell>
      </root>
    </mxGraphModel>
  </diagram>
</mxfile>
